<svg xmlns="http://www.w3.org/2000/svg" xmlns:xlink="http://www.w3.org/1999/xlink" width="500" zoomAndPan="magnify" viewBox="0 0 375 374.999991" height="500" preserveAspectRatio="xMidYMid meet" version="1.0"><defs><clipPath id="5c3ef9b459"><path d="M 105.234375 107.382812 L 288.984375 107.382812 L 288.984375 267.882812 L 105.234375 267.882812 Z M 105.234375 107.382812 " clip-rule="nonzero"/></clipPath><clipPath id="dd51f5d34d"><path d="M 85.855469 166.988281 L 188 166.988281 L 188 267.488281 L 85.855469 267.488281 Z M 85.855469 166.988281 " clip-rule="nonzero"/></clipPath><clipPath id="5f5dcee1f2"><path d="M 187 166.988281 L 289.105469 166.988281 L 289.105469 267.488281 L 187 267.488281 Z M 187 166.988281 " clip-rule="nonzero"/></clipPath></defs><path fill="#ace18d" d="M 227.691406 123.933594 C 230.25 123.933594 232.394531 122.121094 232.902344 119.707031 C 232.980469 119.34375 233.027344 118.96875 233.027344 118.585938 C 233.027344 118.089844 232.949219 117.609375 232.824219 117.148438 C 232.195312 114.898438 230.132812 113.234375 227.691406 113.234375 C 225.246094 113.234375 223.183594 114.898438 222.554688 117.148438 C 222.425781 117.609375 222.355469 118.089844 222.355469 118.585938 C 222.355469 118.96875 222.394531 119.34375 222.472656 119.707031 C 222.984375 122.121094 225.128906 123.933594 227.691406 123.933594 " fill-opacity="1" fill-rule="nonzero"/><path fill="#ace18d" d="M 285.773438 137.324219 L 285.8125 146.988281 C 285.8125 147.558594 286.273438 148.019531 286.847656 148.019531 C 287.417969 148.015625 287.878906 147.554688 287.878906 146.980469 L 287.839844 137.316406 C 287.820312 131.652344 284.996094 126.648438 280.691406 123.609375 L 279.664062 125.414062 C 283.351562 128.085938 285.761719 132.425781 285.773438 137.324219 " fill-opacity="1" fill-rule="nonzero"/><path fill="#ace18d" d="M 254.488281 125.5 L 253.445312 123.707031 C 249.164062 126.773438 246.378906 131.800781 246.398438 137.464844 L 246.429688 147.128906 C 246.433594 147.703125 246.898438 148.164062 247.464844 148.160156 C 248.035156 148.160156 248.496094 147.691406 248.496094 147.121094 L 248.460938 137.457031 C 248.445312 132.558594 250.824219 128.199219 254.488281 125.5 " fill-opacity="1" fill-rule="nonzero"/><path fill="#bcb5e8" d="M 279.679688 121.019531 L 279.402344 120.855469 C 278.882812 120.554688 278.351562 120.28125 277.808594 120.042969 C 276.1875 119.324219 274.332031 120.34375 274.09375 122.101562 L 274.09375 122.109375 C 273.929688 123.289062 274.585938 124.421875 275.671875 124.90625 C 276.042969 125.066406 276.398438 125.25 276.746094 125.453125 L 277.027344 125.617188 C 277.714844 126.019531 278.601562 125.785156 279 125.089844 L 280.203125 122.984375 C 280.597656 122.292969 280.363281 121.417969 279.679688 121.019531 " fill-opacity="1" fill-rule="nonzero"/><path fill="#bcb5e8" d="M 257.136719 125.683594 C 257.566406 125.429688 258.011719 125.203125 258.464844 125.003906 C 259.5625 124.523438 260.214844 123.378906 260.042969 122.183594 C 259.796875 120.472656 257.988281 119.425781 256.402344 120.109375 C 255.71875 120.40625 255.050781 120.75 254.40625 121.132812 C 253.746094 121.527344 253.535156 122.394531 253.929688 123.066406 L 255.148438 125.171875 C 255.554688 125.875 256.449219 126.09375 257.136719 125.683594 " fill-opacity="1" fill-rule="nonzero"/><g clip-path="url(#5c3ef9b459)"><path fill="#bcb5e8" d="M 227.691406 109.890625 C 231.980469 109.890625 235.546875 113.035156 236.230469 117.148438 C 236.3125 117.617188 236.363281 118.09375 236.363281 118.585938 C 236.363281 118.96875 236.328125 119.335938 236.28125 119.707031 C 235.730469 123.972656 232.09375 127.28125 227.691406 127.28125 C 223.28125 127.28125 219.644531 123.972656 219.09375 119.707031 C 219.046875 119.335938 219.015625 118.96875 219.015625 118.585938 C 219.015625 118.09375 219.066406 117.617188 219.144531 117.148438 C 219.832031 113.035156 223.394531 109.890625 227.691406 109.890625 Z M 141.84375 170.332031 L 168.015625 267.878906 L 198.785156 267.878906 L 223.863281 170.699219 L 223.863281 245.484375 C 223.863281 257.851562 233.863281 267.878906 246.199219 267.878906 C 258.535156 267.878906 268.535156 257.851562 268.535156 245.484375 L 268.535156 176.4375 C 269.328125 175.988281 269.863281 175.136719 269.855469 174.160156 L 269.851562 173.039062 C 280.621094 171.707031 288.964844 162.464844 288.921875 151.324219 L 288.921875 151.011719 C 288.917969 150.230469 288.285156 149.601562 287.511719 149.605469 L 286.199219 149.609375 C 285.410156 149.609375 284.789062 150.261719 284.789062 151.042969 C 284.816406 160.382812 277.636719 168.285156 268.535156 169.011719 C 268.003906 169.058594 267.46875 169.078125 266.921875 169.074219 C 266.605469 169.066406 266.296875 169.054688 265.984375 169.03125 C 256.839844 168.417969 249.578125 160.789062 249.546875 151.46875 L 249.542969 151.136719 C 249.542969 150.363281 248.914062 149.746094 248.148438 149.746094 L 246.796875 149.75 C 246.035156 149.753906 245.410156 150.378906 245.414062 151.140625 C 245.449219 162.347656 253.785156 171.785156 264.636719 173.0625 L 264.644531 174.179688 C 264.644531 175.160156 265.191406 176.003906 265.984375 176.445312 L 265.984375 245.484375 C 265.984375 256.441406 257.121094 265.320312 246.199219 265.320312 C 235.273438 265.320312 226.414062 256.441406 226.414062 245.484375 L 226.414062 150.605469 L 196.808594 265.320312 L 169.972656 265.320312 L 139.292969 150.976562 L 139.292969 265.320312 L 107.84375 265.320312 L 107.84375 119.707031 L 164.878906 119.707031 L 187.320312 202.089844 L 206.765625 127.300781 C 207.929688 122.824219 211.960938 119.707031 216.570312 119.707031 C 217.132812 125.355469 221.90625 129.785156 227.691406 129.785156 C 233.46875 129.785156 238.242188 125.355469 238.800781 119.707031 C 238.84375 119.335938 238.855469 118.960938 238.855469 118.585938 C 238.855469 118.097656 238.828125 117.617188 238.765625 117.148438 C 238.058594 111.648438 233.363281 107.386719 227.691406 107.386719 C 222.015625 107.386719 217.316406 111.648438 216.613281 117.148438 C 210.820312 117.148438 205.753906 121.070312 204.292969 126.691406 L 187.265625 192.171875 L 166.828125 117.148438 L 105.292969 117.148438 L 105.292969 267.878906 L 141.84375 267.878906 L 141.84375 170.332031 " fill-opacity="1" fill-rule="nonzero"/></g><g clip-path="url(#dd51f5d34d)"><path fill="#f9b666" d="M 160.226562 183.476562 L 152.242188 175.5 L 132.679688 175.5 L 130.800781 177.378906 C 130.015625 176.777344 128.890625 176.835938 128.171875 177.550781 C 127.390625 178.332031 127.390625 179.597656 128.171875 180.378906 C 128.953125 181.160156 130.222656 181.160156 131.003906 180.378906 C 131.722656 179.664062 131.777344 178.535156 131.179688 177.753906 L 132.898438 176.03125 L 152.023438 176.03125 L 160.007812 184.007812 L 162.816406 184.007812 L 187.496094 208.820312 L 187.496094 208.105469 L 163.003906 183.476562 Z M 160.457031 188.136719 L 151.054688 178.742188 L 136.175781 178.742188 L 130.761719 184.148438 L 117.742188 184.148438 C 117.542969 182.464844 116.105469 181.152344 114.367188 181.152344 C 112.492188 181.152344 110.964844 182.675781 110.964844 184.546875 C 110.964844 186.421875 112.492188 187.945312 114.367188 187.945312 C 116.105469 187.945312 117.542969 186.632812 117.742188 184.949219 L 131.089844 184.949219 L 136.503906 179.539062 L 150.726562 179.539062 L 160.128906 188.933594 L 162.269531 188.933594 L 187.496094 214.109375 L 187.496094 212.679688 L 163.003906 188.136719 Z M 156.910156 198.324219 L 149.457031 190.878906 L 119.140625 190.878906 L 114.019531 195.996094 L 91.84375 195.996094 C 91.648438 194.527344 90.390625 193.394531 88.871094 193.394531 C 87.210938 193.394531 85.867188 194.738281 85.867188 196.394531 C 85.867188 198.050781 87.210938 199.390625 88.871094 199.390625 C 90.390625 199.390625 91.648438 198.257812 91.84375 196.792969 L 114.351562 196.792969 L 119.46875 191.679688 L 149.125 191.679688 L 156.578125 199.121094 L 162.8125 199.121094 L 187.496094 223.511719 L 187.496094 222.117188 L 163.003906 198.324219 Z M 152.820312 247.242188 L 142.984375 247.242188 C 142.855469 246.261719 142.015625 245.507812 141 245.507812 C 139.898438 245.507812 139 246.402344 139 247.507812 C 139 248.613281 139.898438 249.507812 141 249.507812 C 142.015625 249.507812 142.855469 248.75 142.984375 247.773438 L 153.039062 247.773438 L 160.390625 240.429688 L 187.496094 267.480469 L 187.496094 266.769531 L 160.359375 239.707031 Z M 160.128906 228.320312 L 150.726562 237.714844 L 136.503906 237.714844 L 131.089844 232.308594 L 117.742188 232.308594 C 117.542969 230.621094 116.105469 229.308594 114.367188 229.308594 C 112.492188 229.308594 110.964844 230.832031 110.964844 232.707031 C 110.964844 234.582031 112.492188 236.105469 114.367188 236.105469 C 116.105469 236.105469 117.542969 234.792969 117.742188 233.105469 L 130.761719 233.105469 L 136.175781 238.511719 L 151.054688 238.511719 L 160.457031 229.121094 L 162.496094 229.121094 L 187.496094 253.511719 L 187.496094 252.109375 L 163.003906 228.320312 Z M 156.578125 218.132812 L 149.125 225.578125 L 119.46875 225.578125 L 114.351562 220.464844 L 91.84375 220.464844 C 91.648438 218.996094 90.390625 217.863281 88.871094 217.863281 C 87.210938 217.863281 85.867188 219.207031 85.867188 220.863281 C 85.867188 222.519531 87.210938 223.859375 88.871094 223.859375 C 90.390625 223.859375 91.648438 222.726562 91.84375 221.261719 L 114.019531 221.261719 L 119.140625 226.375 L 149.457031 226.375 L 156.910156 218.933594 L 162.429688 218.933594 L 187.496094 244.503906 L 187.496094 243.066406 L 163.003906 218.132812 Z M 160.007812 233.25 L 152.023438 241.222656 L 132.898438 241.222656 L 131.179688 239.5 C 131.777344 238.71875 131.722656 237.59375 131.003906 236.875 C 130.222656 236.09375 128.953125 236.09375 128.171875 236.875 C 127.390625 237.65625 127.390625 238.921875 128.171875 239.703125 C 128.890625 240.421875 130.015625 240.476562 130.800781 239.878906 L 132.679688 241.753906 L 152.242188 241.753906 L 160.226562 233.78125 L 162.640625 233.78125 L 187.496094 258.601562 L 187.496094 257.878906 L 163.003906 233.25 Z M 156.679688 193.496094 L 149.984375 186.808594 C 150.585938 186.023438 150.527344 184.902344 149.808594 184.183594 C 149.027344 183.402344 147.761719 183.402344 146.980469 184.183594 C 146.199219 184.964844 146.199219 186.230469 146.980469 187.011719 C 147.699219 187.726562 148.824219 187.785156 149.609375 187.1875 L 156.457031 194.027344 L 162.644531 194.027344 L 187.496094 218.847656 L 187.496094 218.121094 L 163.003906 193.496094 Z M 156.457031 223.230469 L 149.609375 230.070312 C 148.824219 229.472656 147.699219 229.527344 146.980469 230.246094 C 146.199219 231.023438 146.199219 232.289062 146.980469 233.070312 C 147.761719 233.851562 149.027344 233.851562 149.808594 233.070312 C 150.527344 232.355469 150.585938 231.230469 149.984375 230.445312 L 156.679688 223.761719 L 162.765625 223.761719 L 187.496094 248.574219 L 187.496094 247.859375 L 163.003906 223.230469 Z M 154.148438 213.5625 L 146.316406 221.386719 L 135.53125 221.386719 C 135.402344 220.410156 134.5625 219.65625 133.550781 219.65625 C 132.445312 219.65625 131.546875 220.550781 131.546875 221.65625 C 131.546875 222.757812 132.445312 223.652344 133.550781 223.652344 C 134.5625 223.652344 135.402344 222.898438 135.53125 221.921875 L 146.539062 221.921875 L 154.371094 214.09375 L 162.632812 214.09375 L 187.496094 238.914062 L 187.496094 238.191406 L 163.003906 213.5625 Z M 160.582031 176.257812 L 153.039062 168.726562 L 142.984375 168.726562 C 142.855469 167.746094 142.015625 166.992188 141 166.992188 C 139.898438 166.992188 139 167.886719 139 168.992188 C 139 170.097656 139.898438 170.992188 141 170.992188 C 142.015625 170.992188 142.855469 170.234375 142.984375 169.257812 L 152.820312 169.257812 L 160.359375 176.789062 L 187.496094 203.507812 L 187.496094 202.800781 Z M 154.371094 203.160156 L 146.539062 195.335938 L 135.53125 195.335938 C 135.402344 194.355469 134.5625 193.601562 133.550781 193.601562 C 132.445312 193.601562 131.546875 194.496094 131.546875 195.601562 C 131.546875 196.707031 132.445312 197.601562 133.550781 197.601562 C 134.5625 197.601562 135.402344 196.84375 135.53125 195.867188 L 146.316406 195.867188 L 154.148438 203.691406 L 162.652344 203.691406 L 187.496094 228.511719 L 187.496094 227.789062 L 163.003906 203.160156 Z M 148.59375 208.382812 L 142.875 214.097656 L 102.9375 214.097656 C 102.738281 212.410156 101.300781 211.097656 99.558594 211.097656 C 97.6875 211.097656 96.160156 212.621094 96.160156 214.496094 C 96.160156 216.371094 97.6875 217.894531 99.558594 217.894531 C 101.300781 217.894531 102.738281 216.582031 102.9375 214.894531 L 143.203125 214.894531 L 148.925781 209.179688 L 162.742188 209.179688 L 187.496094 233.570312 L 187.496094 232.175781 L 163.003906 208.382812 L 148.59375 208.382812 " fill-opacity="1" fill-rule="nonzero"/></g><g clip-path="url(#5f5dcee1f2)"><path fill="#f9b666" d="M 211.984375 183.476562 L 187.496094 208.105469 L 187.496094 208.820312 L 212.175781 184.007812 L 214.984375 184.007812 L 222.96875 176.03125 L 242.089844 176.03125 L 243.8125 177.753906 C 243.210938 178.535156 243.269531 179.664062 243.988281 180.378906 C 244.769531 181.160156 246.035156 181.160156 246.816406 180.378906 C 247.597656 179.597656 247.597656 178.332031 246.816406 177.550781 C 246.101562 176.835938 244.972656 176.777344 244.1875 177.378906 L 242.308594 175.5 L 222.746094 175.5 L 214.765625 183.476562 Z M 211.984375 188.136719 L 187.496094 212.679688 L 187.496094 214.109375 L 212.71875 188.933594 L 214.863281 188.933594 L 224.265625 179.539062 L 238.484375 179.539062 L 243.898438 184.949219 L 257.246094 184.949219 C 257.445312 186.632812 258.882812 187.945312 260.625 187.945312 C 262.5 187.945312 264.027344 186.421875 264.027344 184.546875 C 264.027344 182.675781 262.5 181.152344 260.625 181.152344 C 258.882812 181.152344 257.445312 182.464844 257.246094 184.148438 L 244.230469 184.148438 L 238.816406 178.742188 L 223.933594 178.742188 L 214.53125 188.136719 Z M 211.984375 198.324219 L 187.496094 222.117188 L 187.496094 223.511719 L 212.179688 199.121094 L 218.410156 199.121094 L 225.863281 191.679688 L 255.519531 191.679688 L 260.640625 196.792969 L 283.148438 196.792969 C 283.34375 198.257812 284.597656 199.390625 286.121094 199.390625 C 287.777344 199.390625 289.125 198.050781 289.125 196.394531 C 289.125 194.738281 287.777344 193.394531 286.121094 193.394531 C 284.597656 193.394531 283.34375 194.527344 283.148438 195.996094 L 260.972656 195.996094 L 255.851562 190.878906 L 225.535156 190.878906 L 218.082031 198.324219 Z M 214.628906 239.707031 L 187.496094 266.769531 L 187.496094 267.480469 L 214.601562 240.429688 L 221.949219 247.773438 L 232.007812 247.773438 C 232.136719 248.75 232.972656 249.507812 233.988281 249.507812 C 235.09375 249.507812 235.988281 248.613281 235.988281 247.507812 C 235.988281 246.402344 235.09375 245.507812 233.988281 245.507812 C 232.972656 245.507812 232.136719 246.261719 232.007812 247.242188 L 222.171875 247.242188 Z M 211.984375 228.320312 L 187.496094 252.109375 L 187.496094 253.511719 L 212.492188 229.121094 L 214.53125 229.121094 L 223.933594 238.511719 L 238.816406 238.511719 L 244.230469 233.105469 L 257.246094 233.105469 C 257.445312 234.792969 258.882812 236.105469 260.625 236.105469 C 262.5 236.105469 264.027344 234.582031 264.027344 232.707031 C 264.027344 230.832031 262.5 229.308594 260.625 229.308594 C 258.882812 229.308594 257.445312 230.621094 257.246094 232.308594 L 243.898438 232.308594 L 238.484375 237.714844 L 224.265625 237.714844 L 214.863281 228.320312 Z M 211.984375 218.132812 L 187.496094 243.066406 L 187.496094 244.503906 L 212.5625 218.933594 L 218.082031 218.933594 L 225.535156 226.375 L 255.851562 226.375 L 260.972656 221.261719 L 283.148438 221.261719 C 283.34375 222.726562 284.597656 223.859375 286.121094 223.859375 C 287.777344 223.859375 289.125 222.519531 289.125 220.863281 C 289.125 219.207031 287.777344 217.863281 286.121094 217.863281 C 284.597656 217.863281 283.34375 218.996094 283.148438 220.464844 L 260.640625 220.464844 L 255.519531 225.578125 L 225.863281 225.578125 L 218.410156 218.132812 Z M 211.984375 233.25 L 187.496094 257.878906 L 187.496094 258.601562 L 212.351562 233.78125 L 214.765625 233.78125 L 222.746094 241.753906 L 242.308594 241.753906 L 244.1875 239.878906 C 244.972656 240.476562 246.101562 240.421875 246.816406 239.703125 C 247.597656 238.921875 247.597656 237.65625 246.816406 236.875 C 246.035156 236.09375 244.769531 236.09375 243.988281 236.875 C 243.269531 237.59375 243.210938 238.71875 243.8125 239.5 L 242.089844 241.222656 L 222.96875 241.222656 L 214.984375 233.25 Z M 211.984375 193.496094 L 187.496094 218.121094 L 187.496094 218.847656 L 212.34375 194.027344 L 218.53125 194.027344 L 225.382812 187.1875 C 226.167969 187.785156 227.292969 187.726562 228.011719 187.011719 C 228.792969 186.230469 228.792969 184.964844 228.011719 184.183594 C 227.226562 183.402344 225.960938 183.402344 225.179688 184.183594 C 224.464844 184.902344 224.40625 186.023438 225.007812 186.808594 L 218.3125 193.496094 Z M 211.984375 223.230469 L 187.496094 247.859375 L 187.496094 248.574219 L 212.222656 223.761719 L 218.3125 223.761719 L 225.007812 230.445312 C 224.40625 231.230469 224.464844 232.355469 225.179688 233.070312 C 225.960938 233.851562 227.226562 233.851562 228.011719 233.070312 C 228.792969 232.289062 228.792969 231.023438 228.011719 230.246094 C 227.292969 229.527344 226.167969 229.472656 225.382812 230.070312 L 218.53125 223.230469 Z M 211.984375 213.5625 L 187.496094 238.191406 L 187.496094 238.914062 L 212.359375 214.09375 L 220.617188 214.09375 L 228.453125 221.921875 L 239.457031 221.921875 C 239.589844 222.898438 240.425781 223.652344 241.441406 223.652344 C 242.546875 223.652344 243.441406 222.757812 243.441406 221.65625 C 243.441406 220.550781 242.546875 219.65625 241.441406 219.65625 C 240.425781 219.65625 239.589844 220.410156 239.457031 221.386719 L 228.671875 221.386719 L 220.839844 213.5625 Z M 187.496094 202.800781 L 187.496094 203.507812 L 214.628906 176.789062 L 222.171875 169.257812 L 232.007812 169.257812 C 232.136719 170.234375 232.972656 170.992188 233.988281 170.992188 C 235.09375 170.992188 235.988281 170.097656 235.988281 168.992188 C 235.988281 167.886719 235.09375 166.992188 233.988281 166.992188 C 232.972656 166.992188 232.136719 167.746094 232.007812 168.726562 L 221.949219 168.726562 L 214.410156 176.257812 Z M 211.984375 203.160156 L 187.496094 227.789062 L 187.496094 228.511719 L 212.339844 203.691406 L 220.839844 203.691406 L 228.671875 195.867188 L 239.457031 195.867188 C 239.589844 196.84375 240.425781 197.601562 241.441406 197.601562 C 242.546875 197.601562 243.441406 196.707031 243.441406 195.601562 C 243.441406 194.496094 242.546875 193.601562 241.441406 193.601562 C 240.425781 193.601562 239.589844 194.355469 239.457031 195.335938 L 228.453125 195.335938 L 220.617188 203.160156 Z M 211.984375 208.382812 L 187.496094 232.175781 L 187.496094 233.570312 L 212.246094 209.179688 L 226.066406 209.179688 L 231.785156 214.894531 L 272.054688 214.894531 C 272.253906 216.582031 273.691406 217.894531 275.429688 217.894531 C 277.304688 217.894531 278.832031 216.371094 278.832031 214.496094 C 278.832031 212.621094 277.304688 211.097656 275.429688 211.097656 C 273.691406 211.097656 272.253906 212.410156 272.054688 214.097656 L 232.117188 214.097656 L 226.394531 208.382812 L 211.984375 208.382812 " fill-opacity="1" fill-rule="nonzero"/></g></svg>