<svg xmlns="http://www.w3.org/2000/svg" xmlns:xlink="http://www.w3.org/1999/xlink" width="500" zoomAndPan="magnify" viewBox="0 0 375 374.999991" height="500" preserveAspectRatio="xMidYMid meet" version="1.0"><defs><g/><clipPath id="99df809ddd"><path d="M 101.601562 64.050781 L 293.601562 64.050781 L 293.601562 231.300781 L 101.601562 231.300781 Z M 101.601562 64.050781 " clip-rule="nonzero"/></clipPath><clipPath id="9ddb3b97db"><path d="M 81.367188 126.285156 L 188 126.285156 L 188 231.285156 L 81.367188 231.285156 Z M 81.367188 126.285156 " clip-rule="nonzero"/></clipPath><clipPath id="edf3925509"><path d="M 187 126.285156 L 293.617188 126.285156 L 293.617188 231.285156 L 187 231.285156 Z M 187 126.285156 " clip-rule="nonzero"/></clipPath></defs><path fill="#ace18d" d="M 229.554688 81.296875 C 232.230469 81.296875 234.46875 79.40625 235.003906 76.890625 C 235.082031 76.511719 235.128906 76.121094 235.128906 75.722656 C 235.128906 75.207031 235.050781 74.707031 234.917969 74.226562 C 234.261719 71.878906 232.109375 70.148438 229.554688 70.148438 C 227 70.148438 224.847656 71.878906 224.1875 74.226562 C 224.054688 74.707031 223.980469 75.207031 223.980469 75.722656 C 223.980469 76.121094 224.019531 76.511719 224.101562 76.890625 C 224.640625 79.40625 226.878906 81.296875 229.554688 81.296875 " fill-opacity="1" fill-rule="nonzero"/><path fill="#ace18d" d="M 290.242188 95.253906 L 290.28125 105.320312 C 290.28125 105.914062 290.765625 106.398438 291.363281 106.398438 C 291.960938 106.390625 292.441406 105.910156 292.441406 105.3125 L 292.402344 95.242188 C 292.382812 89.339844 289.429688 84.125 284.933594 80.957031 L 283.855469 82.839844 C 287.710938 85.625 290.230469 90.144531 290.242188 95.253906 " fill-opacity="1" fill-rule="nonzero"/><path fill="#ace18d" d="M 257.554688 82.929688 L 256.464844 81.058594 C 251.992188 84.257812 249.082031 89.496094 249.101562 95.394531 L 249.136719 105.46875 C 249.140625 106.066406 249.625 106.542969 250.214844 106.539062 C 250.8125 106.539062 251.292969 106.054688 251.292969 105.457031 L 251.253906 95.390625 C 251.242188 90.285156 253.722656 85.742188 257.554688 82.929688 " fill-opacity="1" fill-rule="nonzero"/><path fill="#bcb5e8" d="M 283.875 78.261719 L 283.585938 78.089844 C 283.042969 77.777344 282.488281 77.492188 281.917969 77.242188 C 280.226562 76.496094 278.289062 77.558594 278.039062 79.390625 L 278.039062 79.394531 C 277.867188 80.625 278.554688 81.804688 279.6875 82.3125 C 280.074219 82.476562 280.445312 82.667969 280.808594 82.882812 L 281.101562 83.050781 C 281.820312 83.472656 282.75 83.226562 283.167969 82.503906 L 284.421875 80.308594 C 284.832031 79.585938 284.589844 78.675781 283.875 78.261719 " fill-opacity="1" fill-rule="nonzero"/><path fill="#bcb5e8" d="M 260.324219 83.121094 C 260.769531 82.855469 261.234375 82.621094 261.710938 82.414062 C 262.855469 81.910156 263.539062 80.71875 263.355469 79.476562 C 263.101562 77.691406 261.210938 76.597656 259.554688 77.3125 C 258.839844 77.621094 258.144531 77.976562 257.46875 78.378906 C 256.777344 78.789062 256.5625 79.695312 256.972656 80.394531 L 258.246094 82.585938 C 258.671875 83.316406 259.601562 83.546875 260.324219 83.121094 " fill-opacity="1" fill-rule="nonzero"/><g clip-path="url(#99df809ddd)"><path fill="#bcb5e8" d="M 229.554688 66.664062 C 234.039062 66.664062 237.765625 69.941406 238.476562 74.226562 C 238.5625 74.714844 238.617188 75.210938 238.617188 75.722656 C 238.617188 76.121094 238.578125 76.507812 238.53125 76.890625 C 237.957031 81.335938 234.15625 84.785156 229.554688 84.785156 C 224.949219 84.785156 221.148438 81.335938 220.574219 76.890625 C 220.523438 76.507812 220.492188 76.121094 220.492188 75.722656 C 220.492188 75.210938 220.546875 74.714844 220.625 74.226562 C 221.34375 69.941406 225.066406 66.664062 229.554688 66.664062 Z M 139.859375 129.644531 L 167.207031 231.296875 L 199.351562 231.296875 L 225.558594 130.027344 L 225.558594 207.960938 C 225.558594 220.847656 236.003906 231.296875 248.894531 231.296875 C 261.78125 231.296875 272.230469 220.847656 272.230469 207.960938 L 272.230469 136.007812 C 273.058594 135.539062 273.617188 134.65625 273.613281 133.636719 L 273.605469 132.46875 C 284.859375 131.078125 293.574219 121.449219 293.535156 109.839844 L 293.535156 109.511719 C 293.527344 108.699219 292.867188 108.042969 292.058594 108.046875 L 290.6875 108.054688 C 289.863281 108.054688 289.214844 108.730469 289.214844 109.546875 C 289.242188 119.277344 281.742188 127.515625 272.230469 128.269531 C 271.679688 128.316406 271.117188 128.339844 270.546875 128.335938 C 270.214844 128.328125 269.890625 128.3125 269.566406 128.289062 C 260.011719 127.652344 252.421875 119.699219 252.390625 109.988281 L 252.386719 109.644531 C 252.386719 108.835938 251.730469 108.195312 250.929688 108.195312 L 249.519531 108.199219 C 248.722656 108.203125 248.070312 108.855469 248.074219 109.648438 C 248.109375 121.324219 256.820312 131.160156 268.160156 132.492188 L 268.164062 133.65625 C 268.164062 134.675781 268.734375 135.558594 269.566406 136.019531 L 269.566406 207.960938 C 269.566406 219.378906 260.308594 228.632812 248.894531 228.632812 C 237.476562 228.632812 228.222656 219.378906 228.222656 207.960938 L 228.222656 109.089844 L 197.289062 228.632812 L 169.246094 228.632812 L 137.195312 109.476562 L 137.195312 228.632812 L 104.335938 228.632812 L 104.335938 76.890625 L 163.925781 76.890625 L 187.375 162.738281 L 207.691406 84.804688 C 208.910156 80.140625 213.121094 76.890625 217.9375 76.890625 C 218.527344 82.777344 223.511719 87.394531 229.554688 87.394531 C 235.59375 87.394531 240.578125 82.777344 241.164062 76.890625 C 241.207031 76.507812 241.222656 76.117188 241.222656 75.722656 C 241.222656 75.21875 241.191406 74.714844 241.125 74.226562 C 240.386719 68.496094 235.480469 64.054688 229.554688 64.054688 C 223.628906 64.054688 218.71875 68.496094 217.980469 74.226562 C 211.925781 74.226562 206.632812 78.3125 205.105469 84.171875 L 187.316406 152.402344 L 165.960938 74.226562 L 101.667969 74.226562 L 101.667969 231.296875 L 139.859375 231.296875 L 139.859375 129.644531 " fill-opacity="1" fill-rule="nonzero"/></g><g clip-path="url(#9ddb3b97db)"><path fill="#f9b666" d="M 159.03125 143.511719 L 150.695312 135.179688 L 130.265625 135.179688 L 128.304688 137.140625 C 127.484375 136.515625 126.308594 136.574219 125.558594 137.324219 C 124.742188 138.136719 124.742188 139.460938 125.558594 140.277344 C 126.375 141.089844 127.699219 141.089844 128.515625 140.277344 C 129.265625 139.527344 129.324219 138.351562 128.699219 137.53125 L 130.496094 135.734375 L 150.464844 135.734375 L 158.800781 144.066406 L 161.738281 144.066406 L 187.507812 169.992188 L 187.507812 169.242188 L 161.933594 143.511719 Z M 159.273438 148.378906 L 149.457031 138.566406 L 133.914062 138.566406 L 128.261719 144.214844 L 114.667969 144.214844 C 114.460938 142.457031 112.960938 141.082031 111.140625 141.082031 C 109.183594 141.082031 107.589844 142.675781 107.589844 144.632812 C 107.589844 146.589844 109.183594 148.183594 111.140625 148.183594 C 112.960938 148.183594 114.460938 146.8125 114.667969 145.050781 L 128.605469 145.050781 L 134.261719 139.398438 L 149.109375 139.398438 L 158.929688 149.214844 L 161.167969 149.214844 L 187.507812 175.519531 L 187.507812 174.023438 L 161.933594 148.378906 Z M 155.570312 159.027344 L 147.785156 151.246094 L 116.125 151.246094 L 110.78125 156.59375 L 87.621094 156.59375 C 87.414062 155.058594 86.105469 153.875 84.515625 153.875 C 82.785156 153.875 81.378906 155.277344 81.378906 157.007812 C 81.378906 158.738281 82.785156 160.140625 84.515625 160.140625 C 86.105469 160.140625 87.414062 158.957031 87.621094 157.425781 L 111.125 157.425781 L 116.472656 152.082031 L 147.441406 152.082031 L 155.222656 159.859375 L 161.734375 159.859375 L 187.507812 185.339844 L 187.507812 183.886719 L 161.933594 159.027344 Z M 151.296875 210.132812 L 141.027344 210.132812 C 140.890625 209.113281 140.015625 208.324219 138.957031 208.324219 C 137.804688 208.324219 136.867188 209.257812 136.867188 210.414062 C 136.867188 211.566406 137.804688 212.5 138.957031 212.5 C 140.015625 212.5 140.890625 211.710938 141.027344 210.691406 L 151.527344 210.691406 L 159.203125 203.019531 L 187.507812 231.28125 L 187.507812 230.539062 L 159.171875 202.261719 Z M 158.929688 190.367188 L 149.109375 200.179688 L 134.261719 200.179688 L 128.605469 194.53125 L 114.667969 194.53125 C 114.460938 192.769531 112.960938 191.398438 111.140625 191.398438 C 109.183594 191.398438 107.589844 192.992188 107.589844 194.949219 C 107.589844 196.90625 109.183594 198.496094 111.140625 198.496094 C 112.960938 198.496094 114.460938 197.125 114.667969 195.367188 L 128.261719 195.367188 L 133.914062 201.011719 L 149.457031 201.011719 L 159.273438 191.199219 L 161.40625 191.199219 L 187.507812 216.6875 L 187.507812 215.222656 L 161.933594 190.367188 Z M 155.222656 179.722656 L 147.441406 187.5 L 116.472656 187.5 L 111.125 182.15625 L 87.621094 182.15625 C 87.414062 180.625 86.105469 179.4375 84.515625 179.4375 C 82.785156 179.4375 81.378906 180.84375 81.378906 182.574219 C 81.378906 184.304688 82.785156 185.707031 84.515625 185.707031 C 86.105469 185.707031 87.414062 184.523438 87.621094 182.988281 L 110.78125 182.988281 L 116.125 188.332031 L 147.785156 188.332031 L 155.570312 180.554688 L 161.332031 180.554688 L 187.507812 207.277344 L 187.507812 205.773438 L 161.933594 179.722656 Z M 158.800781 195.515625 L 150.464844 203.84375 L 130.496094 203.84375 L 128.699219 202.046875 C 129.324219 201.230469 129.265625 200.054688 128.515625 199.304688 C 127.699219 198.488281 126.375 198.488281 125.558594 199.304688 C 124.742188 200.121094 124.742188 201.441406 125.558594 202.257812 C 126.308594 203.007812 127.484375 203.066406 128.304688 202.441406 L 130.265625 204.402344 L 150.695312 204.402344 L 159.03125 196.070312 L 161.550781 196.070312 L 187.507812 222.003906 L 187.507812 221.246094 L 161.933594 195.515625 Z M 155.328125 153.980469 L 148.335938 146.992188 C 148.964844 146.175781 148.902344 145 148.15625 144.25 C 147.339844 143.4375 146.015625 143.4375 145.199219 144.25 C 144.382812 145.066406 144.382812 146.390625 145.199219 147.207031 C 145.949219 147.953125 147.125 148.015625 147.945312 147.386719 L 155.097656 154.535156 L 161.558594 154.535156 L 187.507812 180.46875 L 187.507812 179.710938 L 161.933594 153.980469 Z M 155.097656 185.046875 L 147.945312 192.195312 C 147.125 191.566406 145.949219 191.628906 145.199219 192.375 C 144.382812 193.191406 144.382812 194.511719 145.199219 195.328125 C 146.015625 196.144531 147.339844 196.144531 148.15625 195.328125 C 148.902344 194.582031 148.964844 193.40625 148.335938 192.585938 L 155.328125 185.601562 L 161.6875 185.601562 L 187.507812 211.527344 L 187.507812 210.777344 L 161.933594 185.046875 Z M 152.6875 174.949219 L 144.507812 183.121094 L 133.246094 183.121094 C 133.109375 182.101562 132.234375 181.3125 131.175781 181.3125 C 130.019531 181.3125 129.085938 182.246094 129.085938 183.402344 C 129.085938 184.554688 130.019531 185.488281 131.175781 185.488281 C 132.234375 185.488281 133.109375 184.699219 133.246094 183.679688 L 144.738281 183.679688 L 152.917969 175.503906 L 161.546875 175.503906 L 187.507812 201.4375 L 187.507812 200.679688 L 161.933594 174.949219 Z M 159.402344 135.972656 L 151.527344 128.101562 L 141.027344 128.101562 C 140.890625 127.078125 140.015625 126.289062 138.957031 126.289062 C 137.804688 126.289062 136.867188 127.226562 136.867188 128.378906 C 136.867188 129.53125 137.804688 130.46875 138.957031 130.46875 C 140.015625 130.46875 140.890625 129.679688 141.027344 128.65625 L 151.296875 128.65625 L 159.171875 136.527344 L 187.507812 164.441406 L 187.507812 163.703125 Z M 152.917969 164.078125 L 144.738281 155.902344 L 133.246094 155.902344 C 133.109375 154.882812 132.234375 154.09375 131.175781 154.09375 C 130.019531 154.09375 129.085938 155.027344 129.085938 156.179688 C 129.085938 157.335938 130.019531 158.269531 131.175781 158.269531 C 132.234375 158.269531 133.109375 157.480469 133.246094 156.457031 L 144.507812 156.457031 L 152.6875 164.632812 L 161.566406 164.632812 L 187.507812 190.566406 L 187.507812 189.808594 L 161.933594 164.078125 Z M 146.886719 169.535156 L 140.910156 175.503906 L 99.207031 175.503906 C 98.996094 173.742188 97.496094 172.371094 95.679688 172.371094 C 93.722656 172.371094 92.128906 173.964844 92.128906 175.921875 C 92.128906 177.878906 93.722656 179.472656 95.679688 179.472656 C 97.496094 179.472656 98.996094 178.101562 99.207031 176.339844 L 141.257812 176.339844 L 147.230469 170.367188 L 161.660156 170.367188 L 187.507812 195.851562 L 187.507812 194.394531 L 161.933594 169.535156 L 146.886719 169.535156 " fill-opacity="1" fill-rule="nonzero"/></g><g clip-path="url(#edf3925509)"><path fill="#f9b666" d="M 213.082031 143.511719 L 187.507812 169.242188 L 187.507812 169.992188 L 213.28125 144.066406 L 216.214844 144.066406 L 224.550781 135.734375 L 244.519531 135.734375 L 246.320312 137.53125 C 245.691406 138.351562 245.753906 139.527344 246.503906 140.277344 C 247.320312 141.089844 248.640625 141.089844 249.457031 140.277344 C 250.273438 139.460938 250.273438 138.136719 249.457031 137.324219 C 248.707031 136.574219 247.53125 136.515625 246.710938 137.140625 L 244.75 135.179688 L 224.320312 135.179688 L 215.984375 143.511719 Z M 213.082031 148.378906 L 187.507812 174.023438 L 187.507812 175.519531 L 213.851562 149.214844 L 216.085938 149.214844 L 225.90625 139.398438 L 240.757812 139.398438 L 246.410156 145.050781 L 260.351562 145.050781 C 260.558594 146.8125 262.058594 148.183594 263.875 148.183594 C 265.835938 148.183594 267.429688 146.589844 267.429688 144.632812 C 267.429688 142.675781 265.835938 141.082031 263.875 141.082031 C 262.058594 141.082031 260.558594 142.457031 260.351562 144.214844 L 246.753906 144.214844 L 241.101562 138.566406 L 225.5625 138.566406 L 215.742188 148.378906 Z M 213.082031 159.027344 L 187.507812 183.886719 L 187.507812 185.339844 L 213.285156 159.859375 L 219.792969 159.859375 L 227.578125 152.082031 L 258.546875 152.082031 L 263.894531 157.425781 L 287.398438 157.425781 C 287.601562 158.957031 288.910156 160.140625 290.5 160.140625 C 292.230469 160.140625 293.636719 158.738281 293.636719 157.007812 C 293.636719 155.277344 292.230469 153.875 290.5 153.875 C 288.910156 153.875 287.601562 155.058594 287.398438 156.59375 L 264.238281 156.59375 L 258.890625 151.246094 L 227.230469 151.246094 L 219.449219 159.027344 Z M 215.84375 202.261719 L 187.507812 230.539062 L 187.507812 231.28125 L 215.8125 203.019531 L 223.488281 210.691406 L 233.992188 210.691406 C 234.125 211.710938 235 212.5 236.0625 212.5 C 237.214844 212.5 238.148438 211.566406 238.148438 210.414062 C 238.148438 209.257812 237.214844 208.324219 236.0625 208.324219 C 235 208.324219 234.125 209.113281 233.992188 210.132812 L 223.71875 210.132812 Z M 213.082031 190.367188 L 187.507812 215.222656 L 187.507812 216.6875 L 213.613281 191.199219 L 215.742188 191.199219 L 225.5625 201.011719 L 241.101562 201.011719 L 246.753906 195.367188 L 260.351562 195.367188 C 260.558594 197.125 262.058594 198.496094 263.875 198.496094 C 265.835938 198.496094 267.429688 196.90625 267.429688 194.949219 C 267.429688 192.992188 265.835938 191.398438 263.875 191.398438 C 262.058594 191.398438 260.558594 192.769531 260.351562 194.53125 L 246.410156 194.53125 L 240.757812 200.179688 L 225.90625 200.179688 L 216.085938 190.367188 Z M 213.082031 179.722656 L 187.507812 205.773438 L 187.507812 207.277344 L 213.683594 180.554688 L 219.449219 180.554688 L 227.230469 188.332031 L 258.890625 188.332031 L 264.238281 182.988281 L 287.398438 182.988281 C 287.601562 184.523438 288.910156 185.707031 290.5 185.707031 C 292.230469 185.707031 293.636719 184.304688 293.636719 182.574219 C 293.636719 180.84375 292.230469 179.4375 290.5 179.4375 C 288.910156 179.4375 287.601562 180.625 287.398438 182.15625 L 263.894531 182.15625 L 258.546875 187.5 L 227.578125 187.5 L 219.792969 179.722656 Z M 213.082031 195.515625 L 187.507812 221.246094 L 187.507812 222.003906 L 213.464844 196.070312 L 215.984375 196.070312 L 224.320312 204.402344 L 244.75 204.402344 L 246.710938 202.441406 C 247.53125 203.066406 248.707031 203.007812 249.457031 202.257812 C 250.273438 201.441406 250.273438 200.121094 249.457031 199.304688 C 248.640625 198.488281 247.320312 198.488281 246.503906 199.304688 C 245.753906 200.054688 245.691406 201.230469 246.320312 202.046875 L 244.519531 203.84375 L 224.550781 203.84375 L 216.214844 195.515625 Z M 213.082031 153.980469 L 187.507812 179.710938 L 187.507812 180.46875 L 213.457031 154.535156 L 219.921875 154.535156 L 227.074219 147.386719 C 227.894531 148.015625 229.070312 147.953125 229.816406 147.207031 C 230.632812 146.390625 230.632812 145.066406 229.816406 144.25 C 229 143.4375 227.679688 143.4375 226.863281 144.25 C 226.113281 145 226.054688 146.175781 226.679688 146.992188 L 219.691406 153.980469 Z M 213.082031 185.046875 L 187.507812 210.777344 L 187.507812 211.527344 L 213.332031 185.601562 L 219.691406 185.601562 L 226.679688 192.585938 C 226.054688 193.40625 226.113281 194.582031 226.863281 195.328125 C 227.679688 196.144531 229 196.144531 229.816406 195.328125 C 230.632812 194.511719 230.632812 193.191406 229.816406 192.375 C 229.070312 191.628906 227.894531 191.566406 227.074219 192.195312 L 219.921875 185.046875 Z M 213.082031 174.949219 L 187.507812 200.679688 L 187.507812 201.4375 L 213.472656 175.503906 L 222.097656 175.503906 L 230.28125 183.679688 L 241.773438 183.679688 C 241.910156 184.699219 242.785156 185.488281 243.84375 185.488281 C 244.996094 185.488281 245.933594 184.554688 245.933594 183.402344 C 245.933594 182.246094 244.996094 181.3125 243.84375 181.3125 C 242.785156 181.3125 241.910156 182.101562 241.773438 183.121094 L 230.511719 183.121094 L 222.332031 174.949219 Z M 187.507812 163.703125 L 187.507812 164.441406 L 215.84375 136.527344 L 223.71875 128.65625 L 233.992188 128.65625 C 234.125 129.679688 235 130.46875 236.0625 130.46875 C 237.214844 130.46875 238.148438 129.53125 238.148438 128.378906 C 238.148438 127.226562 237.214844 126.289062 236.0625 126.289062 C 235 126.289062 234.125 127.078125 233.992188 128.101562 L 223.488281 128.101562 L 215.613281 135.972656 Z M 213.082031 164.078125 L 187.507812 189.808594 L 187.507812 190.566406 L 213.453125 164.632812 L 222.332031 164.632812 L 230.511719 156.457031 L 241.773438 156.457031 C 241.910156 157.480469 242.785156 158.269531 243.84375 158.269531 C 244.996094 158.269531 245.933594 157.335938 245.933594 156.179688 C 245.933594 155.027344 244.996094 154.09375 243.84375 154.09375 C 242.785156 154.09375 241.910156 154.882812 241.773438 155.902344 L 230.28125 155.902344 L 222.097656 164.078125 Z M 213.082031 169.535156 L 187.507812 194.394531 L 187.507812 195.851562 L 213.355469 170.367188 L 227.785156 170.367188 L 233.761719 176.339844 L 275.8125 176.339844 C 276.019531 178.101562 277.519531 179.472656 279.335938 179.472656 C 281.296875 179.472656 282.890625 177.878906 282.890625 175.921875 C 282.890625 173.964844 281.296875 172.371094 279.335938 172.371094 C 277.519531 172.371094 276.019531 173.742188 275.8125 175.503906 L 234.105469 175.503906 L 228.132812 169.535156 L 213.082031 169.535156 " fill-opacity="1" fill-rule="nonzero"/></g><g fill="#ace18d" fill-opacity="1"><g transform="translate(87.734318, 267.659044)"><g><path d="M 28.421875 -26.75 C 28.929688 -26.75 29.351562 -26.578125 29.6875 -26.234375 C 30.03125 -25.890625 30.203125 -25.46875 30.203125 -24.96875 L 30.203125 -1.78125 C 30.203125 -1.28125 30.023438 -0.859375 29.671875 -0.515625 C 29.316406 -0.171875 28.898438 0 28.421875 0 C 27.921875 0 27.5 -0.171875 27.15625 -0.515625 C 26.8125 -0.859375 26.640625 -1.28125 26.640625 -1.78125 L 26.640625 -18.796875 L 18.359375 -1.921875 C 17.972656 -1.328125 17.457031 -1.03125 16.8125 -1.03125 C 16.0625 -1.03125 15.515625 -1.382812 15.171875 -2.09375 L 6.984375 -18.5 L 6.984375 -1.78125 C 6.984375 -1.28125 6.8125 -0.859375 6.46875 -0.515625 C 6.125 -0.171875 5.703125 0 5.203125 0 C 4.703125 0 4.28125 -0.171875 3.9375 -0.515625 C 3.59375 -0.859375 3.421875 -1.28125 3.421875 -1.78125 L 3.421875 -24.96875 C 3.421875 -25.46875 3.59375 -25.890625 3.9375 -26.234375 C 4.28125 -26.578125 4.703125 -26.75 5.203125 -26.75 C 5.890625 -26.75 6.414062 -26.429688 6.78125 -25.796875 L 16.953125 -5.40625 L 26.859375 -25.796875 C 27.222656 -26.429688 27.742188 -26.75 28.421875 -26.75 Z M 28.421875 -26.75 "/></g></g></g><g fill="#ace18d" fill-opacity="1"><g transform="translate(121.360113, 267.659044)"><g><path d="M 5.203125 0 C 4.703125 0 4.28125 -0.171875 3.9375 -0.515625 C 3.59375 -0.859375 3.421875 -1.28125 3.421875 -1.78125 L 3.421875 -24.96875 C 3.421875 -25.488281 3.59375 -25.914062 3.9375 -26.25 C 4.28125 -26.582031 4.703125 -26.75 5.203125 -26.75 L 20.6875 -26.75 C 21.207031 -26.75 21.628906 -26.59375 21.953125 -26.28125 C 22.273438 -25.976562 22.4375 -25.578125 22.4375 -25.078125 C 22.4375 -24.597656 22.273438 -24.207031 21.953125 -23.90625 C 21.628906 -23.613281 21.207031 -23.46875 20.6875 -23.46875 L 6.984375 -23.46875 L 6.984375 -15.140625 L 16.8125 -15.140625 C 17.3125 -15.140625 17.726562 -14.984375 18.0625 -14.671875 C 18.394531 -14.367188 18.5625 -13.976562 18.5625 -13.5 C 18.5625 -13.019531 18.394531 -12.625 18.0625 -12.3125 C 17.726562 -12 17.3125 -11.84375 16.8125 -11.84375 L 6.984375 -11.84375 L 6.984375 -3.28125 L 20.6875 -3.28125 C 21.207031 -3.28125 21.628906 -3.128906 21.953125 -2.828125 C 22.273438 -2.535156 22.4375 -2.148438 22.4375 -1.671875 C 22.4375 -1.171875 22.273438 -0.765625 21.953125 -0.453125 C 21.628906 -0.148438 21.207031 0 20.6875 0 Z M 5.203125 0 "/></g></g></g><g fill="#ace18d" fill-opacity="1"><g transform="translate(145.329625, 267.659044)"><g><path d="M 5.203125 0 C 4.703125 0 4.28125 -0.171875 3.9375 -0.515625 C 3.59375 -0.859375 3.421875 -1.28125 3.421875 -1.78125 L 3.421875 -24.96875 C 3.421875 -25.488281 3.59375 -25.914062 3.9375 -26.25 C 4.28125 -26.582031 4.703125 -26.75 5.203125 -26.75 L 11.40625 -26.75 C 13.988281 -26.75 16.28125 -26.175781 18.28125 -25.03125 C 20.289062 -23.894531 21.851562 -22.316406 22.96875 -20.296875 C 24.09375 -18.273438 24.65625 -15.972656 24.65625 -13.390625 C 24.65625 -10.804688 24.09375 -8.5 22.96875 -6.46875 C 21.851562 -4.4375 20.289062 -2.847656 18.28125 -1.703125 C 16.28125 -0.566406 13.988281 0 11.40625 0 Z M 11.40625 -3.15625 C 13.300781 -3.15625 14.992188 -3.585938 16.484375 -4.453125 C 17.984375 -5.316406 19.148438 -6.53125 19.984375 -8.09375 C 20.816406 -9.664062 21.234375 -11.429688 21.234375 -13.390625 C 21.234375 -15.359375 20.816406 -17.117188 19.984375 -18.671875 C 19.148438 -20.222656 17.984375 -21.429688 16.484375 -22.296875 C 14.992188 -23.160156 13.300781 -23.59375 11.40625 -23.59375 L 6.984375 -23.59375 L 6.984375 -3.15625 Z M 11.40625 -3.15625 "/></g></g></g><g fill="#ace18d" fill-opacity="1"><g transform="translate(172.14123, 267.659044)"><g><path d="M 5.203125 0 C 4.703125 0 4.28125 -0.171875 3.9375 -0.515625 C 3.59375 -0.859375 3.421875 -1.28125 3.421875 -1.78125 L 3.421875 -24.96875 C 3.421875 -25.488281 3.59375 -25.914062 3.9375 -26.25 C 4.28125 -26.582031 4.703125 -26.75 5.203125 -26.75 C 5.734375 -26.75 6.160156 -26.582031 6.484375 -26.25 C 6.816406 -25.914062 6.984375 -25.488281 6.984375 -24.96875 L 6.984375 -1.78125 C 6.984375 -1.28125 6.816406 -0.859375 6.484375 -0.515625 C 6.160156 -0.171875 5.734375 0 5.203125 0 Z M 5.203125 0 "/></g></g></g><g fill="#ace18d" fill-opacity="1"><g transform="translate(182.550844, 267.659044)"><g><path d="M 15.40625 0.34375 C 12.96875 0.34375 10.738281 -0.257812 8.71875 -1.46875 C 6.695312 -2.675781 5.101562 -4.332031 3.9375 -6.4375 C 2.769531 -8.539062 2.1875 -10.859375 2.1875 -13.390625 C 2.1875 -15.898438 2.769531 -18.195312 3.9375 -20.28125 C 5.101562 -22.375 6.695312 -24.03125 8.71875 -25.25 C 10.738281 -26.476562 12.96875 -27.09375 15.40625 -27.09375 C 17.144531 -27.09375 18.644531 -26.863281 19.90625 -26.40625 C 21.175781 -25.945312 22.460938 -25.191406 23.765625 -24.140625 C 24.046875 -23.941406 24.226562 -23.734375 24.3125 -23.515625 C 24.40625 -23.296875 24.453125 -23.035156 24.453125 -22.734375 C 24.453125 -22.285156 24.285156 -21.910156 23.953125 -21.609375 C 23.628906 -21.316406 23.25 -21.171875 22.8125 -21.171875 C 22.375 -21.171875 21.972656 -21.316406 21.609375 -21.609375 C 20.671875 -22.410156 19.753906 -22.988281 18.859375 -23.34375 C 17.972656 -23.695312 16.820312 -23.875 15.40625 -23.875 C 13.625 -23.875 11.984375 -23.40625 10.484375 -22.46875 C 8.992188 -21.53125 7.804688 -20.253906 6.921875 -18.640625 C 6.046875 -17.035156 5.609375 -15.285156 5.609375 -13.390625 C 5.609375 -11.472656 6.046875 -9.710938 6.921875 -8.109375 C 7.804688 -6.515625 8.992188 -5.25 10.484375 -4.3125 C 11.984375 -3.375 13.625 -2.90625 15.40625 -2.90625 C 17.601562 -2.90625 19.707031 -3.660156 21.71875 -5.171875 C 22.101562 -5.441406 22.476562 -5.578125 22.84375 -5.578125 C 23.28125 -5.578125 23.640625 -5.421875 23.921875 -5.109375 C 24.210938 -4.804688 24.359375 -4.40625 24.359375 -3.90625 C 24.359375 -3.425781 24.171875 -3.003906 23.796875 -2.640625 C 21.335938 -0.648438 18.539062 0.34375 15.40625 0.34375 Z M 15.40625 0.34375 "/></g></g></g><g fill="#ace18d" fill-opacity="1"><g transform="translate(209.156994, 267.659044)"><g><path d="M 27.578125 -2.953125 C 27.910156 -2.578125 28.078125 -2.175781 28.078125 -1.75 C 28.078125 -1.289062 27.910156 -0.890625 27.578125 -0.546875 C 27.203125 -0.179688 26.800781 0 26.375 0 C 25.957031 0 25.546875 -0.179688 25.140625 -0.546875 L 23.734375 -1.953125 C 21.453125 -0.421875 18.804688 0.34375 15.796875 0.34375 C 13.140625 0.34375 10.773438 -0.238281 8.703125 -1.40625 C 6.640625 -2.570312 5.035156 -4.195312 3.890625 -6.28125 C 2.753906 -8.375 2.1875 -10.742188 2.1875 -13.390625 C 2.1875 -16.035156 2.753906 -18.394531 3.890625 -20.46875 C 5.035156 -22.550781 6.640625 -24.175781 8.703125 -25.34375 C 10.773438 -26.507812 13.140625 -27.09375 15.796875 -27.09375 C 18.421875 -27.09375 20.765625 -26.507812 22.828125 -25.34375 C 24.890625 -24.175781 26.5 -22.550781 27.65625 -20.46875 C 28.8125 -18.394531 29.390625 -16.035156 29.390625 -13.390625 C 29.390625 -11.585938 29.117188 -9.910156 28.578125 -8.359375 C 28.046875 -6.804688 27.273438 -5.4375 26.265625 -4.25 Z M 15.796875 -2.875 C 17.847656 -2.875 19.671875 -3.390625 21.265625 -4.421875 L 17.984375 -7.703125 C 17.617188 -8.117188 17.4375 -8.53125 17.4375 -8.9375 C 17.4375 -9.375 17.617188 -9.773438 17.984375 -10.140625 C 18.347656 -10.503906 18.757812 -10.6875 19.21875 -10.6875 C 19.675781 -10.6875 20.070312 -10.503906 20.40625 -10.140625 L 23.796875 -6.71875 C 25.242188 -8.613281 25.96875 -10.835938 25.96875 -13.390625 C 25.96875 -15.359375 25.53125 -17.140625 24.65625 -18.734375 C 23.789062 -20.328125 22.585938 -21.582031 21.046875 -22.5 C 19.503906 -23.414062 17.753906 -23.875 15.796875 -23.875 C 13.828125 -23.875 12.070312 -23.414062 10.53125 -22.5 C 8.988281 -21.582031 7.78125 -20.328125 6.90625 -18.734375 C 6.039062 -17.140625 5.609375 -15.359375 5.609375 -13.390625 C 5.609375 -11.429688 6.039062 -9.648438 6.90625 -8.046875 C 7.78125 -6.453125 8.992188 -5.191406 10.546875 -4.265625 C 12.097656 -3.335938 13.847656 -2.875 15.796875 -2.875 Z M 15.796875 -2.875 "/></g></g></g><g fill="#ace18d" fill-opacity="1"><g transform="translate(240.694014, 267.659044)"><g><path d="M 14.625 0.546875 C 12.457031 0.546875 10.519531 0.140625 8.8125 -0.671875 C 7.113281 -1.484375 5.789062 -2.609375 4.84375 -4.046875 C 3.894531 -5.484375 3.421875 -7.125 3.421875 -8.96875 L 3.421875 -24.96875 C 3.421875 -25.488281 3.59375 -25.914062 3.9375 -26.25 C 4.28125 -26.582031 4.703125 -26.75 5.203125 -26.75 C 5.734375 -26.75 6.160156 -26.582031 6.484375 -26.25 C 6.816406 -25.914062 6.984375 -25.488281 6.984375 -24.96875 L 6.984375 -8.96875 C 6.984375 -7.757812 7.304688 -6.675781 7.953125 -5.71875 C 8.609375 -4.757812 9.515625 -4.007812 10.671875 -3.46875 C 11.828125 -2.9375 13.144531 -2.671875 14.625 -2.671875 C 16.039062 -2.671875 17.304688 -2.9375 18.421875 -3.46875 C 19.546875 -4.007812 20.421875 -4.757812 21.046875 -5.71875 C 21.671875 -6.675781 21.984375 -7.757812 21.984375 -8.96875 L 21.984375 -24.96875 C 21.984375 -25.488281 22.15625 -25.914062 22.5 -26.25 C 22.84375 -26.582031 23.265625 -26.75 23.765625 -26.75 C 24.265625 -26.75 24.679688 -26.582031 25.015625 -26.25 C 25.347656 -25.914062 25.515625 -25.488281 25.515625 -24.96875 L 25.515625 -8.96875 C 25.515625 -7.144531 25.050781 -5.507812 24.125 -4.0625 C 23.195312 -2.613281 21.90625 -1.484375 20.25 -0.671875 C 18.601562 0.140625 16.726562 0.546875 14.625 0.546875 Z M 14.625 0.546875 "/></g></g></g><g fill="#ace18d" fill-opacity="1"><g transform="translate(269.628635, 267.659044)"><g><path d="M 5.203125 0 C 4.703125 0 4.28125 -0.171875 3.9375 -0.515625 C 3.59375 -0.859375 3.421875 -1.28125 3.421875 -1.78125 L 3.421875 -24.96875 C 3.421875 -25.488281 3.59375 -25.914062 3.9375 -26.25 C 4.28125 -26.582031 4.703125 -26.75 5.203125 -26.75 L 20.6875 -26.75 C 21.207031 -26.75 21.628906 -26.59375 21.953125 -26.28125 C 22.273438 -25.976562 22.4375 -25.578125 22.4375 -25.078125 C 22.4375 -24.597656 22.273438 -24.207031 21.953125 -23.90625 C 21.628906 -23.613281 21.207031 -23.46875 20.6875 -23.46875 L 6.984375 -23.46875 L 6.984375 -15.140625 L 16.8125 -15.140625 C 17.3125 -15.140625 17.726562 -14.984375 18.0625 -14.671875 C 18.394531 -14.367188 18.5625 -13.976562 18.5625 -13.5 C 18.5625 -13.019531 18.394531 -12.625 18.0625 -12.3125 C 17.726562 -12 17.3125 -11.84375 16.8125 -11.84375 L 6.984375 -11.84375 L 6.984375 -3.28125 L 20.6875 -3.28125 C 21.207031 -3.28125 21.628906 -3.128906 21.953125 -2.828125 C 22.273438 -2.535156 22.4375 -2.148438 22.4375 -1.671875 C 22.4375 -1.171875 22.273438 -0.765625 21.953125 -0.453125 C 21.628906 -0.148438 21.207031 0 20.6875 0 Z M 5.203125 0 "/></g></g></g></svg>