<svg xmlns="http://www.w3.org/2000/svg" xmlns:xlink="http://www.w3.org/1999/xlink" width="500" zoomAndPan="magnify" viewBox="0 0 375 374.999991" height="500" preserveAspectRatio="xMidYMid meet" version="1.0"><defs><clipPath id="16cf85ba58"><path d="M 108.054688 110.910156 L 283.554688 110.910156 L 283.554688 263.910156 L 108.054688 263.910156 Z M 108.054688 110.910156 " clip-rule="nonzero"/></clipPath><clipPath id="35205bd082"><path d="M 87.214844 164.808594 L 188 164.808594 L 188 263.808594 L 87.214844 263.808594 Z M 87.214844 164.808594 " clip-rule="nonzero"/></clipPath><clipPath id="92b63146cb"><path d="M 187 164.808594 L 287.464844 164.808594 L 287.464844 263.808594 L 187 263.808594 Z M 187 164.808594 " clip-rule="nonzero"/></clipPath></defs><path fill="#91bf76" d="M 225.011719 126.6875 C 227.457031 126.6875 229.503906 124.957031 229.992188 122.65625 C 230.066406 122.308594 230.109375 121.953125 230.109375 121.585938 C 230.109375 121.113281 230.035156 120.65625 229.914062 120.21875 C 229.316406 118.070312 227.347656 116.484375 225.011719 116.484375 C 222.675781 116.484375 220.710938 118.070312 220.105469 120.21875 C 219.984375 120.65625 219.914062 121.113281 219.914062 121.585938 C 219.914062 121.953125 219.953125 122.308594 220.027344 122.65625 C 220.519531 124.957031 222.566406 126.6875 225.011719 126.6875 " fill-opacity="1" fill-rule="nonzero"/><path fill="#91bf76" d="M 280.484375 139.453125 L 280.519531 148.664062 C 280.519531 149.207031 280.964844 149.648438 281.507812 149.648438 C 282.054688 149.640625 282.492188 149.203125 282.492188 148.65625 L 282.460938 139.441406 C 282.441406 134.042969 279.742188 129.273438 275.632812 126.375 L 274.648438 128.097656 C 278.171875 130.644531 280.472656 134.78125 280.484375 139.453125 " fill-opacity="1" fill-rule="nonzero"/><path fill="#91bf76" d="M 250.605469 128.179688 L 249.609375 126.46875 C 245.519531 129.394531 242.859375 134.183594 242.878906 139.582031 L 242.910156 148.796875 C 242.914062 149.34375 243.355469 149.78125 243.898438 149.777344 C 244.445312 149.777344 244.882812 149.335938 244.882812 148.789062 L 244.847656 139.578125 C 244.835938 134.90625 247.105469 130.753906 250.605469 128.179688 " fill-opacity="1" fill-rule="nonzero"/><path fill="#055c9d" d="M 274.664062 123.910156 L 274.402344 123.753906 C 273.902344 123.464844 273.394531 123.207031 272.875 122.976562 C 271.332031 122.292969 269.558594 123.265625 269.328125 124.941406 L 269.328125 124.945312 C 269.171875 126.070312 269.800781 127.148438 270.835938 127.613281 C 271.191406 127.765625 271.53125 127.941406 271.863281 128.132812 L 272.128906 128.289062 C 272.785156 128.675781 273.636719 128.449219 274.015625 127.789062 L 275.164062 125.78125 C 275.539062 125.121094 275.316406 124.289062 274.664062 123.910156 " fill-opacity="1" fill-rule="nonzero"/><path fill="#055c9d" d="M 253.136719 128.355469 C 253.546875 128.109375 253.96875 127.898438 254.40625 127.707031 C 255.449219 127.246094 256.074219 126.15625 255.910156 125.019531 C 255.675781 123.386719 253.949219 122.386719 252.433594 123.039062 C 251.78125 123.320312 251.144531 123.648438 250.527344 124.015625 C 249.898438 124.390625 249.699219 125.21875 250.074219 125.859375 L 251.238281 127.867188 C 251.625 128.535156 252.476562 128.742188 253.136719 128.355469 " fill-opacity="1" fill-rule="nonzero"/><g clip-path="url(#16cf85ba58)"><path fill="#055c9d" d="M 225.011719 113.296875 C 229.109375 113.296875 232.515625 116.296875 233.167969 120.21875 C 233.246094 120.664062 233.296875 121.117188 233.296875 121.585938 C 233.296875 121.953125 233.261719 122.304688 233.21875 122.65625 C 232.691406 126.722656 229.21875 129.875 225.011719 129.875 C 220.804688 129.875 217.328125 126.722656 216.800781 122.65625 C 216.757812 122.304688 216.730469 121.953125 216.730469 121.585938 C 216.730469 121.117188 216.777344 120.664062 216.851562 120.21875 C 217.507812 116.296875 220.910156 113.296875 225.011719 113.296875 Z M 143.027344 170.914062 L 168.023438 263.902344 L 197.40625 263.902344 L 221.359375 171.265625 L 221.359375 242.558594 C 221.359375 254.347656 230.90625 263.902344 242.6875 263.902344 C 254.472656 263.902344 264.023438 254.347656 264.023438 242.558594 L 264.023438 176.734375 C 264.777344 176.308594 265.289062 175.496094 265.285156 174.566406 L 265.277344 173.496094 C 275.566406 172.226562 283.53125 163.414062 283.492188 152.796875 L 283.492188 152.496094 C 283.488281 151.753906 282.882812 151.152344 282.144531 151.15625 L 280.890625 151.164062 C 280.140625 151.164062 279.546875 151.78125 279.546875 152.527344 C 279.570312 161.429688 272.714844 168.964844 264.023438 169.65625 C 263.515625 169.699219 263.003906 169.71875 262.480469 169.714844 C 262.179688 169.710938 261.882812 169.695312 261.585938 169.675781 C 252.851562 169.089844 245.914062 161.816406 245.886719 152.933594 L 245.882812 152.617188 C 245.882812 151.878906 245.28125 151.289062 244.550781 151.289062 L 243.261719 151.292969 C 242.535156 151.300781 241.9375 151.894531 241.9375 152.621094 C 241.972656 163.300781 249.933594 172.300781 260.300781 173.519531 L 260.304688 174.585938 C 260.304688 175.515625 260.824219 176.324219 261.585938 176.746094 L 261.585938 242.558594 C 261.585938 253.003906 253.121094 261.464844 242.6875 261.464844 C 232.253906 261.464844 223.792969 253.003906 223.792969 242.558594 L 223.792969 152.109375 L 195.519531 261.464844 L 169.890625 261.464844 L 140.589844 152.464844 L 140.589844 261.464844 L 110.554688 261.464844 L 110.554688 122.65625 L 165.027344 122.65625 L 186.460938 201.1875 L 205.03125 129.894531 C 206.140625 125.628906 209.988281 122.65625 214.394531 122.65625 C 214.929688 128.042969 219.488281 132.265625 225.011719 132.265625 C 230.53125 132.265625 235.089844 128.042969 235.625 122.65625 C 235.664062 122.304688 235.675781 121.945312 235.675781 121.585938 C 235.675781 121.125 235.648438 120.664062 235.589844 120.21875 C 234.914062 114.976562 230.429688 110.914062 225.011719 110.914062 C 219.59375 110.914062 215.105469 114.976562 214.433594 120.21875 C 208.898438 120.21875 204.0625 123.957031 202.664062 129.316406 L 186.402344 191.734375 L 166.886719 120.21875 L 108.117188 120.21875 L 108.117188 263.902344 L 143.027344 263.902344 L 143.027344 170.914062 " fill-opacity="1" fill-rule="nonzero"/></g><g clip-path="url(#35205bd082)"><path fill="#bcb5e8" d="M 160.492188 181.046875 L 152.625 173.191406 L 133.351562 173.191406 L 131.5 175.039062 C 130.726562 174.449219 129.617188 174.503906 128.910156 175.210938 C 128.140625 175.980469 128.140625 177.226562 128.910156 177.996094 C 129.679688 178.765625 130.929688 178.765625 131.699219 177.996094 C 132.40625 177.292969 132.460938 176.183594 131.871094 175.410156 L 133.566406 173.714844 L 152.410156 173.714844 L 160.273438 181.570312 L 163.042969 181.570312 L 187.355469 206.015625 L 187.355469 205.3125 L 163.226562 181.046875 Z M 160.71875 185.640625 L 151.457031 176.386719 L 136.792969 176.386719 L 131.460938 181.710938 L 118.632812 181.710938 C 118.4375 180.050781 117.023438 178.757812 115.308594 178.757812 C 113.460938 178.757812 111.957031 180.261719 111.957031 182.105469 C 111.957031 183.949219 113.460938 185.453125 115.308594 185.453125 C 117.023438 185.453125 118.4375 184.160156 118.632812 182.496094 L 131.785156 182.496094 L 137.117188 177.171875 L 151.128906 177.171875 L 160.394531 186.425781 L 162.503906 186.425781 L 187.355469 211.230469 L 187.355469 209.820312 L 163.226562 185.640625 Z M 157.222656 195.675781 L 149.878906 188.34375 L 120.011719 188.34375 L 114.964844 193.382812 L 93.117188 193.382812 C 92.921875 191.9375 91.6875 190.820312 90.1875 190.820312 C 88.554688 190.820312 87.230469 192.144531 87.230469 193.773438 C 87.230469 195.40625 88.554688 196.730469 90.1875 196.730469 C 91.6875 196.730469 92.921875 195.613281 93.117188 194.167969 L 115.292969 194.167969 L 120.335938 189.128906 L 149.554688 189.128906 L 156.898438 196.460938 L 163.039062 196.460938 L 187.355469 220.492188 L 187.355469 219.121094 L 163.226562 195.675781 Z M 153.195312 243.871094 L 143.503906 243.871094 C 143.375 242.90625 142.550781 242.164062 141.550781 242.164062 C 140.460938 242.164062 139.578125 243.042969 139.578125 244.132812 C 139.578125 245.21875 140.460938 246.101562 141.550781 246.101562 C 142.550781 246.101562 143.375 245.359375 143.503906 244.394531 L 153.410156 244.394531 L 160.652344 237.160156 L 187.355469 263.8125 L 187.355469 263.109375 L 160.625 236.449219 Z M 160.394531 225.230469 L 151.128906 234.484375 L 137.117188 234.484375 L 131.785156 229.15625 L 118.632812 229.15625 C 118.4375 227.496094 117.023438 226.203125 115.308594 226.203125 C 113.460938 226.203125 111.957031 227.703125 111.957031 229.550781 C 111.957031 231.398438 113.460938 232.898438 115.308594 232.898438 C 117.023438 232.898438 118.4375 231.605469 118.632812 229.945312 L 131.460938 229.945312 L 136.792969 235.269531 L 151.457031 235.269531 L 160.71875 226.015625 L 162.726562 226.015625 L 187.355469 250.050781 L 187.355469 248.667969 L 163.226562 225.230469 Z M 156.898438 215.191406 L 149.554688 222.527344 L 120.335938 222.527344 L 115.292969 217.488281 L 93.117188 217.488281 C 92.921875 216.042969 91.6875 214.925781 90.1875 214.925781 C 88.554688 214.925781 87.230469 216.25 87.230469 217.882812 C 87.230469 219.511719 88.554688 220.835938 90.1875 220.835938 C 91.6875 220.835938 92.921875 219.71875 93.117188 218.273438 L 114.964844 218.273438 L 120.011719 223.3125 L 149.878906 223.3125 L 157.222656 215.980469 L 162.660156 215.980469 L 187.355469 241.175781 L 187.355469 239.757812 L 163.226562 215.191406 Z M 160.273438 230.085938 L 152.410156 237.941406 L 133.566406 237.941406 L 131.871094 236.246094 C 132.460938 235.472656 132.40625 234.367188 131.699219 233.660156 C 130.929688 232.890625 129.679688 232.890625 128.910156 233.660156 C 128.140625 234.425781 128.140625 235.675781 128.910156 236.445312 C 129.617188 237.148438 130.726562 237.207031 131.5 236.617188 L 133.351562 238.464844 L 152.625 238.464844 L 160.492188 230.609375 L 162.867188 230.609375 L 187.355469 255.0625 L 187.355469 254.351562 L 163.226562 230.085938 Z M 156.996094 190.917969 L 150.398438 184.332031 C 150.992188 183.558594 150.933594 182.453125 150.226562 181.746094 C 149.457031 180.976562 148.210938 180.976562 147.441406 181.746094 C 146.667969 182.515625 146.667969 183.761719 147.441406 184.53125 C 148.148438 185.238281 149.257812 185.292969 150.027344 184.703125 L 156.777344 191.441406 L 162.875 191.441406 L 187.355469 215.894531 L 187.355469 215.183594 L 163.226562 190.917969 Z M 156.777344 220.214844 L 150.027344 226.953125 C 149.257812 226.363281 148.148438 226.417969 147.441406 227.125 C 146.667969 227.894531 146.667969 229.140625 147.441406 229.910156 C 148.210938 230.679688 149.457031 230.679688 150.226562 229.910156 C 150.933594 229.203125 150.992188 228.097656 150.398438 227.324219 L 156.996094 220.738281 L 162.992188 220.738281 L 187.355469 245.183594 L 187.355469 244.476562 L 163.226562 220.214844 Z M 154.503906 210.691406 L 146.785156 218.398438 L 136.160156 218.398438 C 136.03125 217.4375 135.207031 216.691406 134.207031 216.691406 C 133.117188 216.691406 132.234375 217.574219 132.234375 218.660156 C 132.234375 219.75 133.117188 220.628906 134.207031 220.628906 C 135.207031 220.628906 136.03125 219.886719 136.160156 218.921875 L 147.003906 218.921875 L 154.722656 211.214844 L 162.859375 211.214844 L 187.355469 235.667969 L 187.355469 234.953125 L 163.226562 210.691406 Z M 160.839844 173.9375 L 153.410156 166.515625 L 143.503906 166.515625 C 143.375 165.550781 142.550781 164.808594 141.550781 164.808594 C 140.460938 164.808594 139.578125 165.691406 139.578125 166.777344 C 139.578125 167.867188 140.460938 168.746094 141.550781 168.746094 C 142.550781 168.746094 143.375 168.003906 143.503906 167.039062 L 153.195312 167.039062 L 160.625 174.460938 L 187.355469 200.785156 L 187.355469 200.085938 Z M 154.722656 200.441406 L 147.003906 192.734375 L 136.160156 192.734375 C 136.03125 191.769531 135.207031 191.023438 134.207031 191.023438 C 133.117188 191.023438 132.234375 191.90625 132.234375 192.996094 C 132.234375 194.082031 133.117188 194.964844 134.207031 194.964844 C 135.207031 194.964844 136.03125 194.21875 136.160156 193.257812 L 146.785156 193.257812 L 154.503906 200.964844 L 162.878906 200.964844 L 187.355469 225.417969 L 187.355469 224.707031 L 163.226562 200.441406 Z M 149.03125 205.585938 L 143.394531 211.214844 L 104.046875 211.214844 C 103.851562 209.554688 102.433594 208.261719 100.71875 208.261719 C 98.871094 208.261719 97.367188 209.765625 97.367188 211.609375 C 97.367188 213.457031 98.871094 214.957031 100.71875 214.957031 C 102.433594 214.957031 103.851562 213.664062 104.046875 212.003906 L 143.71875 212.003906 L 149.355469 206.371094 L 162.96875 206.371094 L 187.355469 230.402344 L 187.355469 229.027344 L 163.226562 205.585938 L 149.03125 205.585938 " fill-opacity="1" fill-rule="nonzero"/></g><g clip-path="url(#92b63146cb)"><path fill="#bcb5e8" d="M 211.484375 181.046875 L 187.355469 205.3125 L 187.355469 206.015625 L 211.671875 181.570312 L 214.441406 181.570312 L 222.304688 173.714844 L 241.144531 173.714844 L 242.84375 175.410156 C 242.25 176.183594 242.308594 177.292969 243.015625 177.996094 C 243.785156 178.765625 245.035156 178.765625 245.804688 177.996094 C 246.574219 177.226562 246.574219 175.980469 245.804688 175.210938 C 245.097656 174.503906 243.988281 174.449219 243.214844 175.039062 L 241.363281 173.191406 L 222.089844 173.191406 L 214.222656 181.046875 Z M 211.484375 185.640625 L 187.355469 209.820312 L 187.355469 211.230469 L 212.210938 186.425781 L 214.320312 186.425781 L 223.585938 177.171875 L 237.59375 177.171875 L 242.929688 182.496094 L 256.078125 182.496094 C 256.277344 184.160156 257.691406 185.453125 259.40625 185.453125 C 261.253906 185.453125 262.757812 183.949219 262.757812 182.105469 C 262.757812 180.261719 261.253906 178.757812 259.40625 178.757812 C 257.691406 178.757812 256.277344 180.050781 256.078125 181.710938 L 243.253906 181.710938 L 237.921875 176.386719 L 223.257812 176.386719 L 213.996094 185.640625 Z M 211.484375 195.675781 L 187.355469 219.121094 L 187.355469 220.492188 L 211.675781 196.460938 L 217.816406 196.460938 L 225.160156 189.128906 L 254.378906 189.128906 L 259.421875 194.167969 L 281.597656 194.167969 C 281.789062 195.613281 283.027344 196.730469 284.527344 196.730469 C 286.160156 196.730469 287.484375 195.40625 287.484375 193.773438 C 287.484375 192.144531 286.160156 190.820312 284.527344 190.820312 C 283.027344 190.820312 281.789062 191.9375 281.597656 193.382812 L 259.746094 193.382812 L 254.703125 188.34375 L 224.832031 188.34375 L 217.492188 195.675781 Z M 214.089844 236.449219 L 187.355469 263.109375 L 187.355469 263.8125 L 214.0625 237.160156 L 221.304688 244.394531 L 231.210938 244.394531 C 231.339844 245.359375 232.164062 246.101562 233.164062 246.101562 C 234.253906 246.101562 235.136719 245.21875 235.136719 244.132812 C 235.136719 243.042969 234.253906 242.164062 233.164062 242.164062 C 232.164062 242.164062 231.339844 242.90625 231.210938 243.871094 L 221.519531 243.871094 Z M 211.484375 225.230469 L 187.355469 248.667969 L 187.355469 250.050781 L 211.984375 226.015625 L 213.996094 226.015625 L 223.257812 235.269531 L 237.921875 235.269531 L 243.253906 229.945312 L 256.078125 229.945312 C 256.277344 231.605469 257.691406 232.898438 259.40625 232.898438 C 261.253906 232.898438 262.757812 231.398438 262.757812 229.550781 C 262.757812 227.703125 261.253906 226.203125 259.40625 226.203125 C 257.691406 226.203125 256.277344 227.496094 256.078125 229.15625 L 242.929688 229.15625 L 237.59375 234.484375 L 223.585938 234.484375 L 214.320312 225.230469 Z M 211.484375 215.191406 L 187.355469 239.757812 L 187.355469 241.175781 L 212.050781 215.980469 L 217.492188 215.980469 L 224.832031 223.3125 L 254.703125 223.3125 L 259.746094 218.273438 L 281.597656 218.273438 C 281.789062 219.71875 283.027344 220.835938 284.527344 220.835938 C 286.160156 220.835938 287.484375 219.511719 287.484375 217.882812 C 287.484375 216.25 286.160156 214.925781 284.527344 214.925781 C 283.027344 214.925781 281.789062 216.042969 281.597656 217.488281 L 259.421875 217.488281 L 254.378906 222.527344 L 225.160156 222.527344 L 217.816406 215.191406 Z M 211.484375 230.085938 L 187.355469 254.351562 L 187.355469 255.0625 L 211.847656 230.609375 L 214.222656 230.609375 L 222.089844 238.464844 L 241.363281 238.464844 L 243.214844 236.617188 C 243.988281 237.207031 245.097656 237.148438 245.804688 236.445312 C 246.574219 235.675781 246.574219 234.425781 245.804688 233.660156 C 245.035156 232.890625 243.785156 232.890625 243.015625 233.660156 C 242.308594 234.367188 242.25 235.472656 242.84375 236.246094 L 241.144531 237.941406 L 222.304688 237.941406 L 214.441406 230.085938 Z M 211.484375 190.917969 L 187.355469 215.183594 L 187.355469 215.894531 L 211.839844 191.441406 L 217.9375 191.441406 L 224.683594 184.703125 C 225.457031 185.292969 226.566406 185.238281 227.273438 184.53125 C 228.042969 183.761719 228.042969 182.515625 227.273438 181.746094 C 226.503906 180.976562 225.253906 180.976562 224.484375 181.746094 C 223.777344 182.453125 223.722656 183.558594 224.3125 184.332031 L 217.71875 190.917969 Z M 211.484375 220.214844 L 187.355469 244.476562 L 187.355469 245.183594 L 211.71875 220.738281 L 217.71875 220.738281 L 224.3125 227.324219 C 223.722656 228.097656 223.777344 229.203125 224.484375 229.910156 C 225.253906 230.679688 226.503906 230.679688 227.273438 229.910156 C 228.042969 229.140625 228.042969 227.894531 227.273438 227.125 C 226.566406 226.417969 225.457031 226.363281 224.683594 226.953125 L 217.9375 220.214844 Z M 211.484375 210.691406 L 187.355469 234.953125 L 187.355469 235.667969 L 211.851562 211.214844 L 219.992188 211.214844 L 227.710938 218.921875 L 238.554688 218.921875 C 238.683594 219.886719 239.507812 220.628906 240.507812 220.628906 C 241.59375 220.628906 242.476562 219.75 242.476562 218.660156 C 242.476562 217.574219 241.59375 216.691406 240.507812 216.691406 C 239.507812 216.691406 238.683594 217.4375 238.554688 218.398438 L 227.925781 218.398438 L 220.210938 210.691406 Z M 187.355469 200.085938 L 187.355469 200.785156 L 214.089844 174.460938 L 221.519531 167.039062 L 231.210938 167.039062 C 231.339844 168.003906 232.164062 168.746094 233.164062 168.746094 C 234.253906 168.746094 235.136719 167.867188 235.136719 166.777344 C 235.136719 165.691406 234.253906 164.808594 233.164062 164.808594 C 232.164062 164.808594 231.339844 165.550781 231.210938 166.515625 L 221.304688 166.515625 L 213.875 173.9375 Z M 211.484375 200.441406 L 187.355469 224.707031 L 187.355469 225.417969 L 211.835938 200.964844 L 220.210938 200.964844 L 227.925781 193.257812 L 238.554688 193.257812 C 238.683594 194.21875 239.507812 194.964844 240.507812 194.964844 C 241.59375 194.964844 242.476562 194.082031 242.476562 192.996094 C 242.476562 191.90625 241.59375 191.023438 240.507812 191.023438 C 239.507812 191.023438 238.683594 191.769531 238.554688 192.734375 L 227.710938 192.734375 L 219.992188 200.441406 Z M 211.484375 205.585938 L 187.355469 229.027344 L 187.355469 230.402344 L 211.742188 206.371094 L 225.359375 206.371094 L 230.996094 212.003906 L 270.667969 212.003906 C 270.863281 213.664062 272.277344 214.957031 273.996094 214.957031 C 275.839844 214.957031 277.34375 213.457031 277.34375 211.609375 C 277.34375 209.765625 275.839844 208.261719 273.996094 208.261719 C 272.277344 208.261719 270.863281 209.554688 270.667969 211.214844 L 231.320312 211.214844 L 225.683594 205.585938 L 211.484375 205.585938 " fill-opacity="1" fill-rule="nonzero"/></g></svg>