<svg xmlns="http://www.w3.org/2000/svg" xmlns:xlink="http://www.w3.org/1999/xlink" width="500" zoomAndPan="magnify" viewBox="0 0 375 374.999991" height="500" preserveAspectRatio="xMidYMid meet" version="1.0"><defs><g/><clipPath id="f1deb2571c"><path d="M 103.421875 73.863281 L 289.421875 73.863281 L 289.421875 235.863281 L 103.421875 235.863281 Z M 103.421875 73.863281 " clip-rule="nonzero"/></clipPath><clipPath id="7b1a6cb61a"><path d="M 81.367188 130.910156 L 188 130.910156 L 188 235.910156 L 81.367188 235.910156 Z M 81.367188 130.910156 " clip-rule="nonzero"/></clipPath><clipPath id="0a62dce469"><path d="M 187 130.910156 L 293.617188 130.910156 L 293.617188 235.910156 L 187 235.910156 Z M 187 130.910156 " clip-rule="nonzero"/></clipPath></defs><path fill="#91bf76" d="M 227.375 90.570312 C 229.96875 90.570312 232.136719 88.738281 232.652344 86.300781 C 232.730469 85.933594 232.777344 85.554688 232.777344 85.167969 C 232.777344 84.667969 232.699219 84.183594 232.570312 83.71875 C 231.933594 81.445312 229.847656 79.769531 227.375 79.769531 C 224.902344 79.769531 222.816406 81.445312 222.175781 83.71875 C 222.046875 84.183594 221.972656 84.667969 221.972656 85.167969 C 221.972656 85.554688 222.015625 85.933594 222.09375 86.300781 C 222.613281 88.738281 224.785156 90.570312 227.375 90.570312 " fill-opacity="1" fill-rule="nonzero"/><path fill="#91bf76" d="M 286.167969 104.085938 L 286.203125 113.835938 C 286.203125 114.414062 286.671875 114.878906 287.25 114.878906 C 287.832031 114.875 288.292969 114.410156 288.292969 113.832031 L 288.257812 104.074219 C 288.238281 98.359375 285.378906 93.304688 281.023438 90.238281 L 279.980469 92.0625 C 283.714844 94.761719 286.152344 99.136719 286.167969 104.085938 " fill-opacity="1" fill-rule="nonzero"/><path fill="#91bf76" d="M 254.5 92.148438 L 253.445312 90.335938 C 249.109375 93.433594 246.292969 98.507812 246.3125 104.222656 L 246.34375 113.980469 C 246.347656 114.558594 246.816406 115.023438 247.390625 115.019531 C 247.96875 115.019531 248.433594 114.550781 248.433594 113.96875 L 248.398438 104.21875 C 248.382812 99.273438 250.789062 94.875 254.5 92.148438 " fill-opacity="1" fill-rule="nonzero"/><path fill="#055c9d" d="M 279.996094 87.628906 L 279.71875 87.460938 C 279.191406 87.15625 278.652344 86.882812 278.101562 86.640625 C 276.464844 85.917969 274.582031 86.945312 274.339844 88.71875 L 274.339844 88.726562 C 274.175781 89.917969 274.84375 91.058594 275.941406 91.550781 C 276.316406 91.710938 276.675781 91.894531 277.027344 92.101562 L 277.3125 92.265625 C 278.007812 92.675781 278.90625 92.4375 279.308594 91.734375 L 280.527344 89.609375 C 280.925781 88.910156 280.6875 88.027344 279.996094 87.628906 " fill-opacity="1" fill-rule="nonzero"/><path fill="#055c9d" d="M 257.183594 92.335938 C 257.617188 92.074219 258.066406 91.851562 258.523438 91.648438 C 259.632812 91.164062 260.296875 90.007812 260.121094 88.804688 C 259.871094 87.074219 258.042969 86.015625 256.4375 86.707031 C 255.746094 87.007812 255.070312 87.351562 254.417969 87.738281 C 253.75 88.136719 253.535156 89.015625 253.933594 89.691406 L 255.167969 91.816406 C 255.582031 92.527344 256.484375 92.746094 257.183594 92.335938 " fill-opacity="1" fill-rule="nonzero"/><g clip-path="url(#f1deb2571c)"><path fill="#055c9d" d="M 227.375 76.394531 C 231.71875 76.394531 235.328125 79.566406 236.019531 83.71875 C 236.101562 84.191406 236.15625 84.671875 236.15625 85.167969 C 236.15625 85.554688 236.117188 85.925781 236.070312 86.300781 C 235.511719 90.605469 231.832031 93.945312 227.375 93.945312 C 222.914062 93.945312 219.234375 90.605469 218.675781 86.300781 C 218.628906 85.925781 218.597656 85.554688 218.597656 85.167969 C 218.597656 84.671875 218.648438 84.191406 218.726562 83.71875 C 219.421875 79.566406 223.027344 76.394531 227.375 76.394531 Z M 140.488281 137.398438 L 166.976562 235.859375 L 198.117188 235.859375 L 223.503906 137.769531 L 223.503906 213.257812 C 223.503906 225.738281 233.625 235.859375 246.109375 235.859375 C 258.597656 235.859375 268.71875 225.738281 268.71875 213.257812 L 268.71875 143.5625 C 269.519531 143.109375 270.0625 142.25 270.054688 141.265625 L 270.050781 140.132812 C 280.953125 138.785156 289.394531 129.457031 289.351562 118.214844 L 289.351562 117.898438 C 289.347656 117.109375 288.707031 116.476562 287.921875 116.480469 L 286.597656 116.484375 C 285.800781 116.484375 285.167969 117.140625 285.167969 117.929688 C 285.195312 127.355469 277.929688 135.335938 268.71875 136.066406 C 268.179688 136.113281 267.640625 136.132812 267.085938 136.128906 C 266.765625 136.121094 266.449219 136.109375 266.136719 136.085938 C 256.882812 135.46875 249.527344 127.765625 249.5 118.359375 L 249.492188 118.023438 C 249.492188 117.242188 248.855469 116.621094 248.082031 116.621094 L 246.714844 116.625 C 245.945312 116.628906 245.3125 117.257812 245.316406 118.027344 C 245.351562 129.339844 253.789062 138.867188 264.773438 140.15625 L 264.777344 141.285156 C 264.777344 142.269531 265.332031 143.125 266.136719 143.570312 L 266.136719 213.257812 C 266.136719 224.316406 257.164062 233.277344 246.109375 233.277344 C 235.050781 233.277344 226.085938 224.316406 226.085938 213.257812 L 226.085938 117.488281 L 196.117188 233.277344 L 168.957031 233.277344 L 137.90625 117.863281 L 137.90625 233.277344 L 106.070312 233.277344 L 106.070312 86.300781 L 163.800781 86.300781 L 186.515625 169.453125 L 206.199219 93.964844 C 207.375 89.449219 211.453125 86.300781 216.121094 86.300781 C 216.691406 92.003906 221.519531 96.472656 227.375 96.472656 C 233.226562 96.472656 238.054688 92.003906 238.621094 86.300781 C 238.664062 85.925781 238.679688 85.550781 238.679688 85.167969 C 238.679688 84.679688 238.648438 84.191406 238.585938 83.71875 C 237.871094 78.167969 233.117188 73.867188 227.375 73.867188 C 221.632812 73.867188 216.875 78.167969 216.164062 83.71875 C 210.300781 83.71875 205.171875 87.675781 203.691406 93.351562 L 186.457031 159.441406 L 165.773438 83.71875 L 103.488281 83.71875 L 103.488281 235.859375 L 140.488281 235.859375 L 140.488281 137.398438 " fill-opacity="1" fill-rule="nonzero"/></g><g clip-path="url(#7b1a6cb61a)"><path fill="#bcb5e8" d="M 159.03125 148.132812 L 150.695312 139.804688 L 130.265625 139.804688 L 128.304688 141.761719 C 127.484375 141.136719 126.308594 141.195312 125.558594 141.945312 C 124.742188 142.761719 124.742188 144.082031 125.558594 144.898438 C 126.375 145.714844 127.699219 145.714844 128.515625 144.898438 C 129.265625 144.152344 129.324219 142.972656 128.699219 142.15625 L 130.496094 140.359375 L 150.464844 140.359375 L 158.800781 148.6875 L 161.738281 148.6875 L 187.507812 174.613281 L 187.507812 173.867188 L 161.933594 148.132812 Z M 159.273438 153.003906 L 149.457031 143.191406 L 133.914062 143.191406 L 128.261719 148.839844 L 114.667969 148.839844 C 114.460938 147.078125 112.960938 145.707031 111.140625 145.707031 C 109.183594 145.707031 107.589844 147.296875 107.589844 149.253906 C 107.589844 151.210938 109.183594 152.804688 111.140625 152.804688 C 112.960938 152.804688 114.460938 151.433594 114.667969 149.671875 L 128.605469 149.671875 L 134.261719 144.023438 L 149.109375 144.023438 L 158.929688 153.835938 L 161.167969 153.835938 L 187.507812 180.140625 L 187.507812 178.644531 L 161.933594 153.003906 Z M 155.570312 163.648438 L 147.785156 155.871094 L 116.125 155.871094 L 110.78125 161.214844 L 87.621094 161.214844 C 87.414062 159.679688 86.105469 158.496094 84.515625 158.496094 C 82.785156 158.496094 81.378906 159.902344 81.378906 161.632812 C 81.378906 163.363281 82.785156 164.765625 84.515625 164.765625 C 86.105469 164.765625 87.414062 163.578125 87.621094 162.046875 L 111.125 162.046875 L 116.472656 156.703125 L 147.441406 156.703125 L 155.222656 164.480469 L 161.734375 164.480469 L 187.507812 189.960938 L 187.507812 188.507812 L 161.933594 163.648438 Z M 151.296875 214.757812 L 141.027344 214.757812 C 140.890625 213.734375 140.015625 212.945312 138.957031 212.945312 C 137.804688 212.945312 136.867188 213.878906 136.867188 215.035156 C 136.867188 216.1875 137.804688 217.121094 138.957031 217.121094 C 140.015625 217.121094 140.890625 216.332031 141.027344 215.3125 L 151.527344 215.3125 L 159.203125 207.640625 L 187.507812 235.902344 L 187.507812 235.160156 L 159.171875 206.886719 Z M 158.929688 194.988281 L 149.109375 204.804688 L 134.261719 204.804688 L 128.605469 199.152344 L 114.667969 199.152344 C 114.460938 197.390625 112.960938 196.019531 111.140625 196.019531 C 109.183594 196.019531 107.589844 197.613281 107.589844 199.570312 C 107.589844 201.527344 109.183594 203.121094 111.140625 203.121094 C 112.960938 203.121094 114.460938 201.75 114.667969 199.988281 L 128.261719 199.988281 L 133.914062 205.636719 L 149.457031 205.636719 L 159.273438 195.824219 L 161.40625 195.824219 L 187.507812 221.308594 L 187.507812 219.84375 L 161.933594 194.988281 Z M 155.222656 184.34375 L 147.441406 192.121094 L 116.472656 192.121094 L 111.125 186.777344 L 87.621094 186.777344 C 87.414062 185.246094 86.105469 184.0625 84.515625 184.0625 C 82.785156 184.0625 81.378906 185.464844 81.378906 187.195312 C 81.378906 188.925781 82.785156 190.328125 84.515625 190.328125 C 86.105469 190.328125 87.414062 189.144531 87.621094 187.613281 L 110.78125 187.613281 L 116.125 192.957031 L 147.785156 192.957031 L 155.570312 185.179688 L 161.332031 185.179688 L 187.507812 211.898438 L 187.507812 210.394531 L 161.933594 184.34375 Z M 158.800781 200.136719 L 150.464844 208.46875 L 130.496094 208.46875 L 128.699219 206.671875 C 129.324219 205.851562 129.265625 204.675781 128.515625 203.925781 C 127.699219 203.113281 126.375 203.113281 125.558594 203.925781 C 124.742188 204.742188 124.742188 206.066406 125.558594 206.882812 C 126.308594 207.628906 127.484375 207.6875 128.304688 207.0625 L 130.265625 209.023438 L 150.695312 209.023438 L 159.03125 200.691406 L 161.550781 200.691406 L 187.507812 226.625 L 187.507812 225.871094 L 161.933594 200.136719 Z M 155.328125 158.601562 L 148.335938 151.617188 C 148.964844 150.796875 148.902344 149.621094 148.15625 148.875 C 147.339844 148.058594 146.015625 148.058594 145.199219 148.875 C 144.382812 149.691406 144.382812 151.011719 145.199219 151.828125 C 145.949219 152.578125 147.125 152.636719 147.945312 152.011719 L 155.097656 159.15625 L 161.558594 159.15625 L 187.507812 185.089844 L 187.507812 184.332031 L 161.933594 158.601562 Z M 155.097656 189.667969 L 147.945312 196.816406 C 147.125 196.191406 145.949219 196.25 145.199219 197 C 144.382812 197.8125 144.382812 199.136719 145.199219 199.953125 C 146.015625 200.769531 147.339844 200.769531 148.15625 199.953125 C 148.902344 199.203125 148.964844 198.027344 148.335938 197.210938 L 155.328125 190.222656 L 161.6875 190.222656 L 187.507812 216.152344 L 187.507812 215.398438 L 161.933594 189.667969 Z M 152.6875 179.570312 L 144.507812 187.746094 L 133.246094 187.746094 C 133.109375 186.722656 132.234375 185.933594 131.175781 185.933594 C 130.019531 185.933594 129.085938 186.871094 129.085938 188.023438 C 129.085938 189.175781 130.019531 190.109375 131.175781 190.109375 C 132.234375 190.109375 133.109375 189.320312 133.246094 188.300781 L 144.738281 188.300781 L 152.917969 180.125 L 161.546875 180.125 L 187.507812 206.058594 L 187.507812 205.300781 L 161.933594 179.570312 Z M 159.402344 140.59375 L 151.527344 132.722656 L 141.027344 132.722656 C 140.890625 131.703125 140.015625 130.914062 138.957031 130.914062 C 137.804688 130.914062 136.867188 131.847656 136.867188 133 C 136.867188 134.15625 137.804688 135.089844 138.957031 135.089844 C 140.015625 135.089844 140.890625 134.300781 141.027344 133.28125 L 151.296875 133.28125 L 159.171875 141.148438 L 187.507812 169.066406 L 187.507812 168.324219 Z M 152.917969 168.699219 L 144.738281 160.527344 L 133.246094 160.527344 C 133.109375 159.503906 132.234375 158.714844 131.175781 158.714844 C 130.019531 158.714844 129.085938 159.648438 129.085938 160.804688 C 129.085938 161.957031 130.019531 162.890625 131.175781 162.890625 C 132.234375 162.890625 133.109375 162.101562 133.246094 161.082031 L 144.507812 161.082031 L 152.6875 169.257812 L 161.566406 169.257812 L 187.507812 195.1875 L 187.507812 194.433594 L 161.933594 168.699219 Z M 146.886719 174.15625 L 140.910156 180.128906 L 99.207031 180.128906 C 98.996094 178.367188 97.496094 176.996094 95.679688 176.996094 C 93.722656 176.996094 92.128906 178.585938 92.128906 180.542969 C 92.128906 182.5 93.722656 184.09375 95.679688 184.09375 C 97.496094 184.09375 98.996094 182.722656 99.207031 180.960938 L 141.257812 180.960938 L 147.230469 174.988281 L 161.660156 174.988281 L 187.507812 200.472656 L 187.507812 199.015625 L 161.933594 174.15625 L 146.886719 174.15625 " fill-opacity="1" fill-rule="nonzero"/></g><g clip-path="url(#0a62dce469)"><path fill="#bcb5e8" d="M 213.082031 148.132812 L 187.507812 173.867188 L 187.507812 174.613281 L 213.28125 148.6875 L 216.214844 148.6875 L 224.550781 140.359375 L 244.519531 140.359375 L 246.320312 142.15625 C 245.691406 142.972656 245.753906 144.152344 246.503906 144.898438 C 247.320312 145.714844 248.640625 145.714844 249.457031 144.898438 C 250.273438 144.082031 250.273438 142.761719 249.457031 141.945312 C 248.707031 141.195312 247.53125 141.136719 246.710938 141.761719 L 244.75 139.804688 L 224.320312 139.804688 L 215.984375 148.132812 Z M 213.082031 153.003906 L 187.507812 178.644531 L 187.507812 180.140625 L 213.851562 153.835938 L 216.085938 153.835938 L 225.90625 144.023438 L 240.757812 144.023438 L 246.410156 149.671875 L 260.351562 149.671875 C 260.558594 151.433594 262.058594 152.804688 263.875 152.804688 C 265.835938 152.804688 267.429688 151.210938 267.429688 149.253906 C 267.429688 147.296875 265.835938 145.707031 263.875 145.707031 C 262.058594 145.707031 260.558594 147.078125 260.351562 148.839844 L 246.753906 148.839844 L 241.101562 143.191406 L 225.5625 143.191406 L 215.742188 153.003906 Z M 213.082031 163.648438 L 187.507812 188.507812 L 187.507812 189.960938 L 213.285156 164.480469 L 219.792969 164.480469 L 227.578125 156.703125 L 258.546875 156.703125 L 263.894531 162.046875 L 287.398438 162.046875 C 287.601562 163.578125 288.910156 164.765625 290.5 164.765625 C 292.230469 164.765625 293.636719 163.363281 293.636719 161.632812 C 293.636719 159.902344 292.230469 158.496094 290.5 158.496094 C 288.910156 158.496094 287.601562 159.679688 287.398438 161.214844 L 264.238281 161.214844 L 258.890625 155.871094 L 227.230469 155.871094 L 219.449219 163.648438 Z M 215.84375 206.886719 L 187.507812 235.160156 L 187.507812 235.902344 L 215.8125 207.640625 L 223.488281 215.3125 L 233.992188 215.3125 C 234.125 216.332031 235 217.121094 236.0625 217.121094 C 237.214844 217.121094 238.148438 216.1875 238.148438 215.035156 C 238.148438 213.878906 237.214844 212.945312 236.0625 212.945312 C 235 212.945312 234.125 213.734375 233.992188 214.757812 L 223.71875 214.757812 Z M 213.082031 194.988281 L 187.507812 219.84375 L 187.507812 221.308594 L 213.613281 195.824219 L 215.742188 195.824219 L 225.5625 205.636719 L 241.101562 205.636719 L 246.753906 199.988281 L 260.351562 199.988281 C 260.558594 201.75 262.058594 203.121094 263.875 203.121094 C 265.835938 203.121094 267.429688 201.527344 267.429688 199.570312 C 267.429688 197.613281 265.835938 196.019531 263.875 196.019531 C 262.058594 196.019531 260.558594 197.390625 260.351562 199.152344 L 246.410156 199.152344 L 240.757812 204.804688 L 225.90625 204.804688 L 216.085938 194.988281 Z M 213.082031 184.34375 L 187.507812 210.394531 L 187.507812 211.898438 L 213.683594 185.179688 L 219.449219 185.179688 L 227.230469 192.957031 L 258.890625 192.957031 L 264.238281 187.613281 L 287.398438 187.613281 C 287.601562 189.144531 288.910156 190.328125 290.5 190.328125 C 292.230469 190.328125 293.636719 188.925781 293.636719 187.195312 C 293.636719 185.464844 292.230469 184.0625 290.5 184.0625 C 288.910156 184.0625 287.601562 185.246094 287.398438 186.777344 L 263.894531 186.777344 L 258.546875 192.121094 L 227.578125 192.121094 L 219.792969 184.34375 Z M 213.082031 200.136719 L 187.507812 225.871094 L 187.507812 226.625 L 213.464844 200.691406 L 215.984375 200.691406 L 224.320312 209.023438 L 244.75 209.023438 L 246.710938 207.0625 C 247.53125 207.6875 248.707031 207.628906 249.457031 206.882812 C 250.273438 206.066406 250.273438 204.742188 249.457031 203.925781 C 248.640625 203.113281 247.320312 203.113281 246.503906 203.925781 C 245.753906 204.675781 245.691406 205.851562 246.320312 206.671875 L 244.519531 208.46875 L 224.550781 208.46875 L 216.214844 200.136719 Z M 213.082031 158.601562 L 187.507812 184.332031 L 187.507812 185.089844 L 213.457031 159.15625 L 219.921875 159.15625 L 227.074219 152.011719 C 227.894531 152.636719 229.070312 152.578125 229.816406 151.828125 C 230.632812 151.011719 230.632812 149.691406 229.816406 148.875 C 229 148.058594 227.679688 148.058594 226.863281 148.875 C 226.113281 149.621094 226.054688 150.796875 226.679688 151.617188 L 219.691406 158.601562 Z M 213.082031 189.667969 L 187.507812 215.398438 L 187.507812 216.152344 L 213.332031 190.222656 L 219.691406 190.222656 L 226.679688 197.210938 C 226.054688 198.027344 226.113281 199.203125 226.863281 199.953125 C 227.679688 200.769531 229 200.769531 229.816406 199.953125 C 230.632812 199.136719 230.632812 197.8125 229.816406 197 C 229.070312 196.25 227.894531 196.191406 227.074219 196.816406 L 219.921875 189.667969 Z M 213.082031 179.570312 L 187.507812 205.300781 L 187.507812 206.058594 L 213.472656 180.125 L 222.097656 180.125 L 230.28125 188.300781 L 241.773438 188.300781 C 241.910156 189.320312 242.785156 190.109375 243.84375 190.109375 C 244.996094 190.109375 245.933594 189.175781 245.933594 188.023438 C 245.933594 186.871094 244.996094 185.933594 243.84375 185.933594 C 242.785156 185.933594 241.910156 186.722656 241.773438 187.746094 L 230.511719 187.746094 L 222.332031 179.570312 Z M 187.507812 168.324219 L 187.507812 169.066406 L 215.84375 141.148438 L 223.71875 133.28125 L 233.992188 133.28125 C 234.125 134.300781 235 135.089844 236.0625 135.089844 C 237.214844 135.089844 238.148438 134.15625 238.148438 133 C 238.148438 131.847656 237.214844 130.914062 236.0625 130.914062 C 235 130.914062 234.125 131.703125 233.992188 132.722656 L 223.488281 132.722656 L 215.613281 140.59375 Z M 213.082031 168.699219 L 187.507812 194.433594 L 187.507812 195.1875 L 213.453125 169.257812 L 222.332031 169.257812 L 230.511719 161.082031 L 241.773438 161.082031 C 241.910156 162.101562 242.785156 162.890625 243.84375 162.890625 C 244.996094 162.890625 245.933594 161.957031 245.933594 160.804688 C 245.933594 159.648438 244.996094 158.714844 243.84375 158.714844 C 242.785156 158.714844 241.910156 159.503906 241.773438 160.527344 L 230.28125 160.527344 L 222.097656 168.699219 Z M 213.082031 174.15625 L 187.507812 199.015625 L 187.507812 200.472656 L 213.355469 174.988281 L 227.785156 174.988281 L 233.761719 180.960938 L 275.8125 180.960938 C 276.019531 182.722656 277.519531 184.09375 279.335938 184.09375 C 281.296875 184.09375 282.890625 182.5 282.890625 180.542969 C 282.890625 178.585938 281.296875 176.996094 279.335938 176.996094 C 277.519531 176.996094 276.019531 178.367188 275.8125 180.128906 L 234.105469 180.128906 L 228.132812 174.15625 L 213.082031 174.15625 " fill-opacity="1" fill-rule="nonzero"/></g><g fill="#f6b665" fill-opacity="1"><g transform="translate(81.402399, 272.855372)"><g><path d="M 28.421875 -26.75 C 28.929688 -26.75 29.351562 -26.578125 29.6875 -26.234375 C 30.03125 -25.890625 30.203125 -25.46875 30.203125 -24.96875 L 30.203125 -1.78125 C 30.203125 -1.28125 30.023438 -0.859375 29.671875 -0.515625 C 29.316406 -0.171875 28.898438 0 28.421875 0 C 27.921875 0 27.5 -0.171875 27.15625 -0.515625 C 26.8125 -0.859375 26.640625 -1.28125 26.640625 -1.78125 L 26.640625 -18.796875 L 18.359375 -1.921875 C 17.972656 -1.328125 17.457031 -1.03125 16.8125 -1.03125 C 16.0625 -1.03125 15.515625 -1.382812 15.171875 -2.09375 L 6.984375 -18.5 L 6.984375 -1.78125 C 6.984375 -1.28125 6.8125 -0.859375 6.46875 -0.515625 C 6.125 -0.171875 5.703125 0 5.203125 0 C 4.703125 0 4.28125 -0.171875 3.9375 -0.515625 C 3.59375 -0.859375 3.421875 -1.28125 3.421875 -1.78125 L 3.421875 -24.96875 C 3.421875 -25.46875 3.59375 -25.890625 3.9375 -26.234375 C 4.28125 -26.578125 4.703125 -26.75 5.203125 -26.75 C 5.890625 -26.75 6.414062 -26.429688 6.78125 -25.796875 L 16.953125 -5.40625 L 26.859375 -25.796875 C 27.222656 -26.429688 27.742188 -26.75 28.421875 -26.75 Z M 28.421875 -26.75 "/></g></g></g><g fill="#f6b665" fill-opacity="1"><g transform="translate(115.028193, 272.855372)"><g><path d="M 5.203125 0 C 4.703125 0 4.28125 -0.171875 3.9375 -0.515625 C 3.59375 -0.859375 3.421875 -1.28125 3.421875 -1.78125 L 3.421875 -24.96875 C 3.421875 -25.488281 3.59375 -25.914062 3.9375 -26.25 C 4.28125 -26.582031 4.703125 -26.75 5.203125 -26.75 L 20.6875 -26.75 C 21.207031 -26.75 21.628906 -26.59375 21.953125 -26.28125 C 22.273438 -25.976562 22.4375 -25.578125 22.4375 -25.078125 C 22.4375 -24.597656 22.273438 -24.207031 21.953125 -23.90625 C 21.628906 -23.613281 21.207031 -23.46875 20.6875 -23.46875 L 6.984375 -23.46875 L 6.984375 -15.140625 L 16.8125 -15.140625 C 17.3125 -15.140625 17.726562 -14.984375 18.0625 -14.671875 C 18.394531 -14.367188 18.5625 -13.976562 18.5625 -13.5 C 18.5625 -13.019531 18.394531 -12.625 18.0625 -12.3125 C 17.726562 -12 17.3125 -11.84375 16.8125 -11.84375 L 6.984375 -11.84375 L 6.984375 -3.28125 L 20.6875 -3.28125 C 21.207031 -3.28125 21.628906 -3.128906 21.953125 -2.828125 C 22.273438 -2.535156 22.4375 -2.148438 22.4375 -1.671875 C 22.4375 -1.171875 22.273438 -0.765625 21.953125 -0.453125 C 21.628906 -0.148438 21.207031 0 20.6875 0 Z M 5.203125 0 "/></g></g></g><g fill="#f6b665" fill-opacity="1"><g transform="translate(138.997705, 272.855372)"><g><path d="M 5.203125 0 C 4.703125 0 4.28125 -0.171875 3.9375 -0.515625 C 3.59375 -0.859375 3.421875 -1.28125 3.421875 -1.78125 L 3.421875 -24.96875 C 3.421875 -25.488281 3.59375 -25.914062 3.9375 -26.25 C 4.28125 -26.582031 4.703125 -26.75 5.203125 -26.75 L 11.40625 -26.75 C 13.988281 -26.75 16.28125 -26.175781 18.28125 -25.03125 C 20.289062 -23.894531 21.851562 -22.316406 22.96875 -20.296875 C 24.09375 -18.273438 24.65625 -15.972656 24.65625 -13.390625 C 24.65625 -10.804688 24.09375 -8.5 22.96875 -6.46875 C 21.851562 -4.4375 20.289062 -2.847656 18.28125 -1.703125 C 16.28125 -0.566406 13.988281 0 11.40625 0 Z M 11.40625 -3.15625 C 13.300781 -3.15625 14.992188 -3.585938 16.484375 -4.453125 C 17.984375 -5.316406 19.148438 -6.53125 19.984375 -8.09375 C 20.816406 -9.664062 21.234375 -11.429688 21.234375 -13.390625 C 21.234375 -15.359375 20.816406 -17.117188 19.984375 -18.671875 C 19.148438 -20.222656 17.984375 -21.429688 16.484375 -22.296875 C 14.992188 -23.160156 13.300781 -23.59375 11.40625 -23.59375 L 6.984375 -23.59375 L 6.984375 -3.15625 Z M 11.40625 -3.15625 "/></g></g></g><g fill="#f6b665" fill-opacity="1"><g transform="translate(165.809311, 272.855372)"><g><path d="M 5.203125 0 C 4.703125 0 4.28125 -0.171875 3.9375 -0.515625 C 3.59375 -0.859375 3.421875 -1.28125 3.421875 -1.78125 L 3.421875 -24.96875 C 3.421875 -25.488281 3.59375 -25.914062 3.9375 -26.25 C 4.28125 -26.582031 4.703125 -26.75 5.203125 -26.75 C 5.734375 -26.75 6.160156 -26.582031 6.484375 -26.25 C 6.816406 -25.914062 6.984375 -25.488281 6.984375 -24.96875 L 6.984375 -1.78125 C 6.984375 -1.28125 6.816406 -0.859375 6.484375 -0.515625 C 6.160156 -0.171875 5.734375 0 5.203125 0 Z M 5.203125 0 "/></g></g></g><g fill="#f6b665" fill-opacity="1"><g transform="translate(176.218925, 272.855372)"><g><path d="M 15.40625 0.34375 C 12.96875 0.34375 10.738281 -0.257812 8.71875 -1.46875 C 6.695312 -2.675781 5.101562 -4.332031 3.9375 -6.4375 C 2.769531 -8.539062 2.1875 -10.859375 2.1875 -13.390625 C 2.1875 -15.898438 2.769531 -18.195312 3.9375 -20.28125 C 5.101562 -22.375 6.695312 -24.03125 8.71875 -25.25 C 10.738281 -26.476562 12.96875 -27.09375 15.40625 -27.09375 C 17.144531 -27.09375 18.644531 -26.863281 19.90625 -26.40625 C 21.175781 -25.945312 22.460938 -25.191406 23.765625 -24.140625 C 24.046875 -23.941406 24.226562 -23.734375 24.3125 -23.515625 C 24.40625 -23.296875 24.453125 -23.035156 24.453125 -22.734375 C 24.453125 -22.285156 24.285156 -21.910156 23.953125 -21.609375 C 23.628906 -21.316406 23.25 -21.171875 22.8125 -21.171875 C 22.375 -21.171875 21.972656 -21.316406 21.609375 -21.609375 C 20.671875 -22.410156 19.753906 -22.988281 18.859375 -23.34375 C 17.972656 -23.695312 16.820312 -23.875 15.40625 -23.875 C 13.625 -23.875 11.984375 -23.40625 10.484375 -22.46875 C 8.992188 -21.53125 7.804688 -20.253906 6.921875 -18.640625 C 6.046875 -17.035156 5.609375 -15.285156 5.609375 -13.390625 C 5.609375 -11.472656 6.046875 -9.710938 6.921875 -8.109375 C 7.804688 -6.515625 8.992188 -5.25 10.484375 -4.3125 C 11.984375 -3.375 13.625 -2.90625 15.40625 -2.90625 C 17.601562 -2.90625 19.707031 -3.660156 21.71875 -5.171875 C 22.101562 -5.441406 22.476562 -5.578125 22.84375 -5.578125 C 23.28125 -5.578125 23.640625 -5.421875 23.921875 -5.109375 C 24.210938 -4.804688 24.359375 -4.40625 24.359375 -3.90625 C 24.359375 -3.425781 24.171875 -3.003906 23.796875 -2.640625 C 21.335938 -0.648438 18.539062 0.34375 15.40625 0.34375 Z M 15.40625 0.34375 "/></g></g></g><g fill="#f6b665" fill-opacity="1"><g transform="translate(202.825075, 272.855372)"><g><path d="M 27.578125 -2.953125 C 27.910156 -2.578125 28.078125 -2.175781 28.078125 -1.75 C 28.078125 -1.289062 27.910156 -0.890625 27.578125 -0.546875 C 27.203125 -0.179688 26.800781 0 26.375 0 C 25.957031 0 25.546875 -0.179688 25.140625 -0.546875 L 23.734375 -1.953125 C 21.453125 -0.421875 18.804688 0.34375 15.796875 0.34375 C 13.140625 0.34375 10.773438 -0.238281 8.703125 -1.40625 C 6.640625 -2.570312 5.035156 -4.195312 3.890625 -6.28125 C 2.753906 -8.375 2.1875 -10.742188 2.1875 -13.390625 C 2.1875 -16.035156 2.753906 -18.394531 3.890625 -20.46875 C 5.035156 -22.550781 6.640625 -24.175781 8.703125 -25.34375 C 10.773438 -26.507812 13.140625 -27.09375 15.796875 -27.09375 C 18.421875 -27.09375 20.765625 -26.507812 22.828125 -25.34375 C 24.890625 -24.175781 26.5 -22.550781 27.65625 -20.46875 C 28.8125 -18.394531 29.390625 -16.035156 29.390625 -13.390625 C 29.390625 -11.585938 29.117188 -9.910156 28.578125 -8.359375 C 28.046875 -6.804688 27.273438 -5.4375 26.265625 -4.25 Z M 15.796875 -2.875 C 17.847656 -2.875 19.671875 -3.390625 21.265625 -4.421875 L 17.984375 -7.703125 C 17.617188 -8.117188 17.4375 -8.53125 17.4375 -8.9375 C 17.4375 -9.375 17.617188 -9.773438 17.984375 -10.140625 C 18.347656 -10.503906 18.757812 -10.6875 19.21875 -10.6875 C 19.675781 -10.6875 20.070312 -10.503906 20.40625 -10.140625 L 23.796875 -6.71875 C 25.242188 -8.613281 25.96875 -10.835938 25.96875 -13.390625 C 25.96875 -15.359375 25.53125 -17.140625 24.65625 -18.734375 C 23.789062 -20.328125 22.585938 -21.582031 21.046875 -22.5 C 19.503906 -23.414062 17.753906 -23.875 15.796875 -23.875 C 13.828125 -23.875 12.070312 -23.414062 10.53125 -22.5 C 8.988281 -21.582031 7.78125 -20.328125 6.90625 -18.734375 C 6.039062 -17.140625 5.609375 -15.359375 5.609375 -13.390625 C 5.609375 -11.429688 6.039062 -9.648438 6.90625 -8.046875 C 7.78125 -6.453125 8.992188 -5.191406 10.546875 -4.265625 C 12.097656 -3.335938 13.847656 -2.875 15.796875 -2.875 Z M 15.796875 -2.875 "/></g></g></g><g fill="#f6b665" fill-opacity="1"><g transform="translate(234.362094, 272.855372)"><g><path d="M 14.625 0.546875 C 12.457031 0.546875 10.519531 0.140625 8.8125 -0.671875 C 7.113281 -1.484375 5.789062 -2.609375 4.84375 -4.046875 C 3.894531 -5.484375 3.421875 -7.125 3.421875 -8.96875 L 3.421875 -24.96875 C 3.421875 -25.488281 3.59375 -25.914062 3.9375 -26.25 C 4.28125 -26.582031 4.703125 -26.75 5.203125 -26.75 C 5.734375 -26.75 6.160156 -26.582031 6.484375 -26.25 C 6.816406 -25.914062 6.984375 -25.488281 6.984375 -24.96875 L 6.984375 -8.96875 C 6.984375 -7.757812 7.304688 -6.675781 7.953125 -5.71875 C 8.609375 -4.757812 9.515625 -4.007812 10.671875 -3.46875 C 11.828125 -2.9375 13.144531 -2.671875 14.625 -2.671875 C 16.039062 -2.671875 17.304688 -2.9375 18.421875 -3.46875 C 19.546875 -4.007812 20.421875 -4.757812 21.046875 -5.71875 C 21.671875 -6.675781 21.984375 -7.757812 21.984375 -8.96875 L 21.984375 -24.96875 C 21.984375 -25.488281 22.15625 -25.914062 22.5 -26.25 C 22.84375 -26.582031 23.265625 -26.75 23.765625 -26.75 C 24.265625 -26.75 24.679688 -26.582031 25.015625 -26.25 C 25.347656 -25.914062 25.515625 -25.488281 25.515625 -24.96875 L 25.515625 -8.96875 C 25.515625 -7.144531 25.050781 -5.507812 24.125 -4.0625 C 23.195312 -2.613281 21.90625 -1.484375 20.25 -0.671875 C 18.601562 0.140625 16.726562 0.546875 14.625 0.546875 Z M 14.625 0.546875 "/></g></g></g><g fill="#f6b665" fill-opacity="1"><g transform="translate(263.296716, 272.855372)"><g><path d="M 5.203125 0 C 4.703125 0 4.28125 -0.171875 3.9375 -0.515625 C 3.59375 -0.859375 3.421875 -1.28125 3.421875 -1.78125 L 3.421875 -24.96875 C 3.421875 -25.488281 3.59375 -25.914062 3.9375 -26.25 C 4.28125 -26.582031 4.703125 -26.75 5.203125 -26.75 L 20.6875 -26.75 C 21.207031 -26.75 21.628906 -26.59375 21.953125 -26.28125 C 22.273438 -25.976562 22.4375 -25.578125 22.4375 -25.078125 C 22.4375 -24.597656 22.273438 -24.207031 21.953125 -23.90625 C 21.628906 -23.613281 21.207031 -23.46875 20.6875 -23.46875 L 6.984375 -23.46875 L 6.984375 -15.140625 L 16.8125 -15.140625 C 17.3125 -15.140625 17.726562 -14.984375 18.0625 -14.671875 C 18.394531 -14.367188 18.5625 -13.976562 18.5625 -13.5 C 18.5625 -13.019531 18.394531 -12.625 18.0625 -12.3125 C 17.726562 -12 17.3125 -11.84375 16.8125 -11.84375 L 6.984375 -11.84375 L 6.984375 -3.28125 L 20.6875 -3.28125 C 21.207031 -3.28125 21.628906 -3.128906 21.953125 -2.828125 C 22.273438 -2.535156 22.4375 -2.148438 22.4375 -1.671875 C 22.4375 -1.171875 22.273438 -0.765625 21.953125 -0.453125 C 21.628906 -0.148438 21.207031 0 20.6875 0 Z M 5.203125 0 "/></g></g></g></svg>